<?xml version="1.0" encoding="UTF-8"?>
<svg xmlns="http://www.w3.org/2000/svg" xmlns:xlink="http://www.w3.org/1999/xlink" viewBox="0 0 1146.76 613.28">
  <defs>
    <style>
      .cls-1 {
        fill: none;
      }

      .cls-1, .cls-2, .cls-3 {
        stroke-width: 0px;
      }

      .cls-2 {
        fill: #ffefcc;
      }

      .cls-4 {
        clip-path: url(#clippath-1);
      }

      .cls-3 {
        fill: #705249;
      }

      .cls-5 {
        isolation: isolate;
      }

      .cls-6 {
        mix-blend-mode: difference;
        opacity: .64;
      }
    </style>
    <clipPath id="clippath-1">
      <path class="cls-1" d="M509.29,1206.85c-.34,2.54-1.35,4.88-2.43,7.17-1.7,3.6-3.86,6.93-6.21,10.13-3.14,4.27-6.63,8.23-10.25,12.08-1.04,1.1-2.08,2.2-3.13,3.3-.09-.06-.14-.1-.19-.14-3.79-3.67-7.32-7.58-10.52-11.78-2.61-3.42-5.07-6.96-7.14-10.74-1.46-2.65-2.71-5.4-3.36-8.39-.14-.63-.24-1.27-.36-1.91v-2.43s.08-.11.09-.17c.21-2.28,1.19-4.21,2.71-5.88.99-1.1,2.23-1.71,3.73-1.73,2.11-.03,3.91.8,5.49,2.1,1.87,1.53,3.51,3.3,4.93,5.25,1.7,2.34,3.32,4.73,4.98,7.1.03-.05.09-.14.15-.24,1.9-2.71,3.68-5.52,5.73-8.11,2.23-2.81,4.74-5.38,8.38-6.4h1.62s.07.07.11.08c1.5.28,2.65,1.13,3.58,2.29,1.98,2.48,2.48,5.36,2.09,8.42ZM507.2,1198.43c-.93-1.16-2.08-2.01-3.58-2.29-.04-.01-.08-.05-.11-.08h-1.62c-3.64,1.02-6.15,3.59-8.38,6.4-2.05,2.59-3.83,5.4-5.73,8.11-.06.1-.12.19-.15.24-1.66-2.37-3.28-4.76-4.98-7.1-1.42-1.95-3.06-3.72-4.93-5.25-1.58-1.3-3.38-2.13-5.49-2.1-1.5.02-2.74.63-3.73,1.73-1.52,1.67-2.5,3.6-2.71,5.88-.01.06-.06.12-.09.17v2.43c.12.64.22,1.28.36,1.91.65,2.99,1.9,5.74,3.36,8.39,2.07,3.78,4.53,7.32,7.14,10.74,3.2,4.2,6.73,8.11,10.52,11.78.05.04.1.08.19.14,1.05-1.1,2.09-2.2,3.13-3.3,3.62-3.85,7.11-7.81,10.25-12.08,2.35-3.2,4.51-6.53,6.21-10.13,1.08-2.29,2.09-4.63,2.43-7.17.39-3.06-.11-5.94-2.09-8.42ZM342.4,1224.46l-.06,17.68,41.23-8.49-3.46-16.8-37.72,7.61ZM342.4,1196.32l-.06,17.68,36.28-8.02-3.46-16.8-32.77,7.14ZM283.04,1308.62l-.64,14.94,112.87-4.49-1.92-17.51-110.3,7.05ZM507.2,1198.43c-.93-1.16-2.08-2.01-3.58-2.29-.04-.01-.08-.05-.11-.08h-1.62c-3.64,1.02-6.15,3.59-8.38,6.4-2.05,2.59-3.83,5.4-5.73,8.11-.06.1-.12.19-.15.24-1.66-2.37-3.28-4.76-4.98-7.1-1.42-1.95-3.06-3.72-4.93-5.25-1.58-1.3-3.38-2.13-5.49-2.1-1.5.02-2.74.63-3.73,1.73-1.52,1.67-2.5,3.6-2.71,5.88-.01.06-.06.12-.09.17v2.43c.12.64.22,1.28.36,1.91.65,2.99,1.9,5.74,3.36,8.39,2.07,3.78,4.53,7.32,7.14,10.74,3.2,4.2,6.73,8.11,10.52,11.78.05.04.1.08.19.14,1.05-1.1,2.09-2.2,3.13-3.3,3.62-3.85,7.11-7.81,10.25-12.08,2.35-3.2,4.51-6.53,6.21-10.13,1.08-2.29,2.09-4.63,2.43-7.17.39-3.06-.11-5.94-2.09-8.42ZM1116.2,743l-14.05-9.83-18.91,27.7,12.1,12.89,20.86-30.75ZM1131.55,764.34l-31.53,17.41,7.25,15.81,32.43-18.14-8.15-15.09ZM1110.02,805.76l1.24,17.64,33.17,4.93,2.32-16.99-36.74-5.57ZM707.22,801.96l42.33-3.64c.99,0,1.65.66,1.65,1.66l-6.61,159.74c0,.99.66,1.66,1.65,1.66l42.33,2.65c.99,0,1.65-.66,1.65-1.66l.21-101.72-7.29-3.17,7.3-1.21.11-56.62c0-.99.66-1.66,1.66-1.66l35.38,3.31c1,0,1.99-.66,1.99-1.65l4.63-40.35c0-.99-.33-1.65-1.32-1.65l-130.3,1.98c-.99,0-1.32.66-1.32,1.65l3.97,39.02c0,.99,1,1.66,1.99,1.66ZM282.73,1295.93c0,.99.66,1.65,1.66,1.65l107.15-6.94c.99,0,1.66-.66,1.66-1.66l-5.63-41.34c0-.99-.66-1.66-1.65-1.32l-58.87,9.59c-.99,0-1.65-.33-1.65-1.32l4.63-262.99c0-.99-.66-1.65-1.65-1.65l-41.67-2.31c-.99,0-1.66.66-1.66,1.65l-1.05,138.46,10.7,5.38-10.77,3.86-1.2,158.95ZM507.2,1198.43c-.93-1.16-2.08-2.01-3.58-2.29-.04-.01-.08-.05-.11-.08h-1.62c-3.64,1.02-6.15,3.59-8.38,6.4-2.05,2.59-3.83,5.4-5.73,8.11-.06.1-.12.19-.15.24-1.66-2.37-3.28-4.76-4.98-7.1-1.42-1.95-3.06-3.72-4.93-5.25-1.58-1.3-3.38-2.13-5.49-2.1-1.5.02-2.74.63-3.73,1.73-1.52,1.67-2.5,3.6-2.71,5.88-.01.06-.06.12-.09.17v2.43c.12.64.22,1.28.36,1.91.65,2.99,1.9,5.74,3.36,8.39,2.07,3.78,4.53,7.32,7.14,10.74,3.2,4.2,6.73,8.11,10.52,11.78.05.04.1.08.19.14,1.05-1.1,2.09-2.2,3.13-3.3,3.62-3.85,7.11-7.81,10.25-12.08,2.35-3.2,4.51-6.53,6.21-10.13,1.08-2.29,2.09-4.63,2.43-7.17.39-3.06-.11-5.94-2.09-8.42ZM503.62,1196.14s-.08-.05-.11-.08h-1.62c-3.64,1.02-6.15,3.59-8.38,6.4-2.05,2.59-3.83,5.4-5.73,8.11-.06.1-.12.19-.15.24-1.66-2.37-3.28-4.76-4.98-7.1-1.42-1.95-3.06-3.72-4.93-5.25-1.58-1.3-3.38-2.13-5.49-2.1-1.5.02-2.74.63-3.73,1.73-1.52,1.67-2.5,3.6-2.71,5.88-.01.06-.06.12-.09.17v2.43c.12.64.22,1.28.36,1.91.65,2.99,1.9,5.74,3.36,8.39,2.07,3.78,4.53,7.32,7.14,10.74,3.2,4.2,6.73,8.11,10.52,11.78.05.04.1.08.19.14,1.05-1.1,2.09-2.2,3.13-3.3,3.62-3.85,7.11-7.81,10.25-12.08,2.35-3.2,4.51-6.53,6.21-10.13,1.08-2.29,2.09-4.63,2.43-7.17.39-3.06-.11-5.94-2.09-8.42-.93-1.16-2.08-2.01-3.58-2.29ZM553.67,1274.58l-9.74-8.59,7.35,12.98c-13.12,22.65-35.13,38.16-66.81,38.16-59.19,0-73.42-62.84-73.42-110.13s18.53-99.22,76.07-99.22,79.04,62.51,79.04,110.47c0,20.1-4.07,39.84-12.49,56.33ZM527.14,1217.58c0-31.75-14.88-66.47-41.34-66.47-23.48,0-35.39,28.77-35.39,57.87,0,23.48,8.6,63.51,38.36,63.51s38.37-30.76,38.37-54.91ZM507.2,1198.43c-.93-1.16-2.08-2.01-3.58-2.29-.04-.01-.08-.05-.11-.08h-1.62c-3.64,1.02-6.15,3.59-8.38,6.4-2.05,2.59-3.83,5.4-5.73,8.11-.06.1-.12.19-.15.24-1.66-2.37-3.28-4.76-4.98-7.1-1.42-1.95-3.06-3.72-4.93-5.25-1.58-1.3-3.38-2.13-5.49-2.1-1.5.02-2.74.63-3.73,1.73-1.52,1.67-2.5,3.6-2.71,5.88-.01.06-.06.12-.09.17v2.43c.12.64.22,1.28.36,1.91.65,2.99,1.9,5.74,3.36,8.39,2.07,3.78,4.53,7.32,7.14,10.74,3.2,4.2,6.73,8.11,10.52,11.78.05.04.1.08.19.14,1.05-1.1,2.09-2.2,3.13-3.3,3.62-3.85,7.11-7.81,10.25-12.08,2.35-3.2,4.51-6.53,6.21-10.13,1.08-2.29,2.09-4.63,2.43-7.17.39-3.06-.11-5.94-2.09-8.42ZM507.2,1198.43c-.93-1.16-2.08-2.01-3.58-2.29-.04-.01-.08-.05-.11-.08h-1.62c-3.64,1.02-6.15,3.59-8.38,6.4-2.05,2.59-3.83,5.4-5.73,8.11-.06.1-.12.19-.15.24-1.66-2.37-3.28-4.76-4.98-7.1-1.42-1.95-3.06-3.72-4.93-5.25-1.58-1.3-3.38-2.13-5.49-2.1-1.5.02-2.74.63-3.73,1.73-1.52,1.67-2.5,3.6-2.71,5.88-.01.06-.06.12-.09.17v2.43c.12.64.22,1.28.36,1.91.65,2.99,1.9,5.74,3.36,8.39,2.07,3.78,4.53,7.32,7.14,10.74,3.2,4.2,6.73,8.11,10.52,11.78.05.04.1.08.19.14,1.05-1.1,2.09-2.2,3.13-3.3,3.62-3.85,7.11-7.81,10.25-12.08,2.35-3.2,4.51-6.53,6.21-10.13,1.08-2.29,2.09-4.63,2.43-7.17.39-3.06-.11-5.94-2.09-8.42ZM859.85,1267.52l-59.2,5.62c-1,0-1.66-.66-1.66-1.65v-41.34c0-.99.66-1.98,1.66-1.98l33.4-3.31c.99,0,1.65-.99,1.32-1.98l-5.63-31.75c-.33-.99-.99-1.65-1.98-1.65l-28.78,2.31c-.99,0-1.65-.66-1.65-1.66v-31.42c0-.99.66-1.65,1.65-1.65l49.28-5.29c.99,0,1.65-.66,1.65-1.65l-.66-33.4c0-.99-.66-1.65-1.65-1.65l-10.67.28-7.9,9.9,2.89-9.77-72.3,1.9c-.99,0-1.65.66-1.65,1.65l-7.93,192.48c0,.99.66,1.65,1.65,1.65l108.15-2.31c.99,0,1.65-.66,1.65-1.65v-40.02c0-.99-.66-1.66-1.65-1.66ZM1023.73,906.14l3.97,59.2c0,.99-.66,1.65-1.65,1.65l-43,2.98c-.99,0-1.65-.66-1.65-1.66l.33-205.37c0-5.63,35.72-8.27,41.34-8.27,43.32,0,75.73,23.48,76.4,66.8.66,42.67-27.45,77.39-74.08,83.02-.99,0-1.66.66-1.66,1.65ZM1023.73,861.82c18.85-1.32,32.41-17.53,32.41-37.7,0-7.05-1.62-15.11-7.01-20.66l7.93-15.37-13.12,11.53c-5.32-2.78-12.79-3.85-23.18-1.96-1,.33-1.66.99-1.66,1.99l2.98,60.52c0,.99.66,1.65,1.65,1.65ZM619.58,972.28c24.46-.76,48.72-15.76,58.86-41.9l-6.23-8.9h9.03c1.4-5.78,2.16-12.01,2.16-18.65,0-64.49-79.04-66.81-79.04-97.23,0-10.25,6.94-17.2,14.88-17.2,6.95,0,14.22,4.96,18.85,17.53.33.99.99,1.32,1.99.99l28.11-12.24c.99-.33,1.32-1.32.99-2.32-7.93-27.78-29.76-40.01-51.59-40.01-27.78,0-55.56,19.51-55.56,51.26,0,61.52,81.69,56.89,81.69,102.85,0,14.88-11.91,26.46-24.14,26.46-12.9,0-26.13-12.57-26.46-47.96,0-.99-.66-1.65-1.66-1.65l-36.05,1.65c-.99,0-1.65.66-1.65,1.66-3.31,61.18,31.42,87.31,65.81,85.66ZM260.41,864.13l52.92,98.56c.33.99,1.32,1.32,2.31,1.32l35.72-2.98c.99,0,1.65-.66,1.65-1.66l1.88-124.27-14.13,17.21,14.31-28.9.92-60.81c0-.99-.66-1.66-1.65-1.66l-41.34-.33c-.99,0-1.65.66-1.65,1.66l2.98,119.72c0,.99-.33,1.32-.66.33l-53.24-120.71c-.33-.99-1.32-1.32-2.32-1.32l-36.05.33c-.99,0-1.65.66-1.65,1.66l-2.98,201.41c0,.99.66,1.65,1.65,1.65l42.66-4.3c1,0,1.66-.66,1.66-1.66l-3.64-94.92c0-.99.33-1.32.66-.33ZM714.59,1043.94c0,25.3-12.9,49.45-40.85,49.45-29.6,0-36.71-31.42-36.71-55.07s9.26-49.61,38.04-49.61,39.52,31.26,39.52,55.23ZM695.08,1043.61c0-15.87-7.45-33.23-20.68-33.23-11.74,0-17.69,14.38-17.69,28.93,0,2.51.2,5.4.65,8.38l-3.41,9.65,5.17-1.96c2.65,8.37,7.78,15.68,16.77,15.68,14.39,0,19.19-15.38,19.19-27.45ZM600.65,1011.03l2.31-20.17c0-.5-.17-.83-.66-.83l-44.79.68,1.02,4.75-7.04-4.66-14.33.22c-.5,0-.66.33-.66.83l1.99,19.51c0,.5.5.83.99.83l21.17-1.82c.5,0,.83.33.83.83l-3.31,79.87c0,.5.33.83.83.83l21.17,1.32c.5,0,.82-.33.82-.83l.17-81.36c0-.5.33-.83.83-.83l17.69,1.65c.5,0,.99-.33.99-.83ZM475.3,991.52c0-.5-.16-.83-.66-.83l-21.99-.83c-.5,0-.99.33-.99.83-3.08,25.21-6.49,76.2,14.29,94.57l4.59-3.78-1.8,5.95c4.36,2.95,9.63,4.63,15.99,4.63,48.12,0,43.49-68.13,41.67-100.71,0-.5-.33-.83-.83-.83l-20.84-.66c-.5,0-.82.33-.82.83.16,17.53,5.29,76.56-15.38,76.56-22.32,0-14.88-63.99-13.23-75.73ZM745.84,1049.56l72.5-3.56-15.89,13.22,8.74,12.04,21.12-18.45-.67-4.02,2.29,2.61,14.07-12.29v-6.35l-29.23-24.31-2.78,6.39.91-7.94-4.82-4.01-9.64,9.76,16.4,14.32-73.01,2.09c-.5,0-.83-.33-.83-.99l-.17-14.88c0-.5.33-.83.83-.83l37.54-3.8c.5,0,.83-.33.83-.83l1.16-16.53c0-.5-.33-.83-.99-.83l-41.07.23-2.7,6.89-.93-6.87-13.17.07c-.5,0-.83.33-.83.83l-1.98,101.37c0,.5.33.83.99.83h20.34c.5,0,.83-.33.83-.83l-.66-42.33c0-.5.33-.83.83-.99ZM440.24,1043.94c0,25.3-12.9,49.45-40.84,49.45-29.6,0-36.71-31.42-36.71-55.07s9.26-49.61,38.03-49.61c5.99,0,11.19,1.36,15.67,3.7v9.27l3.84-6.92c14.34,10.25,20.01,31.66,20.01,49.18ZM420.73,1043.61c0-15.87-7.44-33.23-20.67-33.23-11.74,0-17.69,14.38-17.69,28.93,0,11.75,4.3,31.75,19.18,31.75s19.18-15.38,19.18-27.45ZM730.54,1121.67l-42-4.63c-.99,0-1.65.33-1.98,1.32l-37.37,140.89c-.33.99-.66.99-.66,0l-17.86-144.86c0-.99-1-1.65-1.99-1.65l-14.52.44v12.05l-3.41-11.95-25.39.77c-.99,0-1.32.66-1.32,1.66l28.77,201.08c0,.99.99,1.65,1.99,1.65l56.55-.33c.99,0,1.66-.66,1.98-1.65l10.75-35.42-3.74-12.08,5.39,6.67,46.14-151.98c.33-.99-.33-1.99-1.32-1.99ZM199.55,865.46c0,50.6-25.79,98.89-81.68,98.89-27.63,0-45.45-13.69-56.62-33.09l12.93-18.17-15.85,12.65c-10.46-21.42-13.88-48.34-13.88-71.52,0-48.29,18.52-99.22,76.06-99.22s79.04,62.51,79.04,110.46ZM160.53,864.8c0-31.75-14.88-66.48-41.34-66.48-23.48,0-35.39,28.78-35.39,57.88,0,23.48,8.6,63.5,38.37,63.5s38.36-30.76,38.36-54.9ZM79.23,751.17v-8.1l3.46,6.21c13.84-7.12,25.29-7.94,25.29-7.94l-4.81-12.61c-90.95,9.35-85.67,113.91-85.67,113.91l17.35-.42c.95-54.29,24.31-79.44,44.38-91.05ZM375.5,960.37l108.15-2.31c.99,0,1.66-.66,1.66-1.66v-40.02c0-.99-.66-1.66-1.66-1.66l-59.2,5.62c-.99,0-1.65-.66-1.65-1.65v-41.34c0-.99.66-1.98,1.65-1.98l33.4-3.31c1,0,1.66-.99,1.32-1.98l-5.62-31.75c-.33-.99-1-1.65-1.99-1.65l-28.77,2.31c-.99,0-1.65-.66-1.65-1.66v-31.42c0-.99.66-1.65,1.65-1.65l49.28-5.29c.99,0,1.65-.66,1.65-1.65l-.66-33.4c0-.99-.66-1.65-1.66-1.65l-87.97,2.31c-.99,0-1.65.66-1.65,1.65l-6.2,150.22,6.35,4.24-6.65,3.09-1.44,34.93c0,.99.66,1.65,1.66,1.65ZM848.69,948.95l108.15-2.31c.99,0,1.66-.66,1.66-1.66v-40.01c0-.99-.66-1.66-1.66-1.66l-59.2,5.62c-.99,0-1.65-.66-1.65-1.65v-29.92c0-.99.66-1.98,1.65-1.98l33.4-3.31c1,0,1.66-.99,1.32-1.98l-5.62-31.75c-.33-.99-1-1.65-1.99-1.65l-28.77,2.31c-.99,0-1.65-.66-1.65-1.66v-31.42c0-.99.66-1.65,1.65-1.65l49.28-5.29c.99,0,1.65-.66,1.65-1.65l-.66-33.4c0-.99-.66-1.65-1.66-1.65l-31.54.83-7.5,7.55.7-7.37-49.63,1.31c-.99,0-1.65.66-1.65,1.65l-7.94,181.06c0,.99.66,1.65,1.66,1.65ZM846.86,959.98l-1.15,12.15,24.6.05,4.61-3.42v3.43l85.85.16-1.35-14.82-112.55,2.45Z"/>
    </clipPath>
    <image id="image" width="2224" height="1668" xlink:href="../../../../Downloads/Untitled_Artwork 119.png"/>
  </defs>
  <g class="cls-5">
    <g id="Vrstva_1" data-name="Vrstva 1">
      <g>
        <path class="cls-3" d="M30.06,89.82c.03-.1.05-.21.08-.31l13.28-29.69c21.67-31.96,54.95-34.35,54.95-34.35l9.62-12.97-10.42-5.8-26.97,11.08c-3.11,1.07-6.02,2.3-8.82,3.62l-7.83,3.22-16.24,12.97-4.13,5.62c-2.16,2.6-4.1,5.3-5.91,8.05l-.44.6v.06C5.8,85.01,7.88,126.77,7.88,126.77l17.35-.42,9.62-12.96-4.79-23.57Z"/>
        <path class="cls-3" d="M745.47,364.64l-9.62-.26-.46-29.68c0-.5.33-.83.83-.99l66.19-3.25-9.58,12.91,8.74,12.04,36.81-32.15,9.62-12.97-11.48,5.07-17.34-14.42,5.05.79-21.77-17.9-9.62,12.96,16.4,14.33-73.01,2.09c-.5,0-.83-.33-.83-.99l-.17-14.88c0-.5.33-.83.83-.83l37.54-3.8c.23,0,.42-.08.56-.21h0s.01,0,.01,0c.01-.01.02-.03.03-.04l9.66-13-8.54-.46.25-3.64c0-.5-.33-.83-.99-.83l-42.84.24.43-.24-6.43-12.42-9.62,12.97s-.02.04-.04.05l-.12.16.05.03c-.06.12-.14.22-.14.37l-1.98,101.37c0,.5.33.83.99.83h20.34c.3,0,.51-.15.65-.35v.04s9.6-12.9,9.6-12.9Z"/>
        <path class="cls-3" d="M580.81,364.07l-9.43-2.32.14-66.58c0-.5.33-.83.83-.83l17.69,1.65c.29,0,.58-.13.77-.32h0s.03-.03.03-.03c.04-.05.09-.1.12-.16l9.48-12.77.22-.5-8.12-.17.81-7.04c0-.5-.17-.83-.66-.83l-53.23.81,1.99-4.66-4.76-7.94-9.67,13s0,0,0,.01l-.14.19.09.02c-.04.12-.09.22-.09.38l1.99,19.51c0,.5.5.83.99.83l21.17-1.82c.5,0,.83.33.83.83l-3.31,79.87c0,.5.33.83.83.83l21.17,1.32c.25,0,.45-.08.6-.23h0s9.69-13.06,9.69-13.06Z"/>
        <path class="cls-3" d="M851.88,581.04v-27.73c0-.99-.66-1.66-1.65-1.66l-59.2,5.62c-1,0-1.66-.66-1.66-1.65v-41.34c0-.99.66-1.98,1.66-1.98l33.4-3.31c.37,0,.67-.17.91-.39l.02.03.13-.17c.05-.06.09-.11.13-.17l9.67-13.02-11.65-.26-3.5-19.75c-.33-.99-.99-1.65-1.98-1.65l-28.78,2.31c-.99,0-1.65-.66-1.65-1.66v-31.42c0-.99.66-1.65,1.65-1.65l49.28-5.29c.41,0,.74-.14,1.01-.34v.03s.05-.07.05-.07c.2-.17.37-.37.47-.63l9.42-12.61h-9.54l-.43-21.45c0-.99-.66-1.65-1.65-1.65l-75.09,1.98-4.35-12.26-9.73,13.05s-.03.04-.04.05l-.17.23h.01c-.16.27-.27.56-.27.92l-7.93,192.48c0,.99.66,1.65,1.65,1.65l108.15-2.31c.64,0,1.12-.3,1.4-.76v.02s9.39-12.65,9.39-12.65l-2.38-3.18-6.75,2.63Z"/>
        <polygon class="cls-3" points="1140.7 97.05 1141.59 90.51 1127.46 88.37 1110.02 76.93 1104.86 84.94 1106.1 102.58 1139.27 107.5 1144.44 99.5 1140.7 97.05"/>
        <path class="cls-3" d="M110.89,39.14c-19.42,0-34.38,5.82-45.7,15.36v-2.94l-7.91,10.89c-2.26,2.69-4.34,5.54-6.22,8.56l-.06.08h0c-11.62,18.72-16.18,43.31-16.18,67.26,0,47.29,14.22,110.13,73.42,110.13,55.89,0,81.69-48.28,81.69-98.88,0-47.96-21.17-110.46-79.04-110.46ZM112.54,203.83c-29.77,0-38.37-40.02-38.37-63.5,0-29.1,11.91-57.88,35.39-57.88,26.46,0,41.34,34.73,41.34,66.48,0,24.14-9.59,54.9-38.36,54.9Z"/>
        <path class="cls-3" d="M250.12,148.6c0-.99.33-1.32.66-.33l52.92,98.56c.33.99,1.32,1.32,2.31,1.32l35.72-2.98c.62,0,1.08-.28,1.36-.71v.05s9.62-12.97,9.62-12.97l-9.13-1.44-7.93-175.38c0-.99-.66-1.66-1.65-1.66l-18.3-8.23,2.15-3.5-6.2-8.91-9.53,12.83h0c-.26.29-.42.68-.42,1.14l2.98,119.72c0,.99-.33,1.32-.66.33l-53.24-120.71c-.33-.99-1.32-1.32-2.32-1.32l-25.36.23-2.26-12.42-9.72,13.08h.01c-.23.28-.38.64-.38,1.09l-2.98,201.41c0,.99.66,1.65,1.65,1.65l42.66-4.3c.61,0,1.07-.27,1.36-.7v.02s9.61-12.91,9.61-12.91h-9.77l-3.18-82.99Z"/>
        <path class="cls-3" d="M365.88,244.51l108.15-2.31c.45,0,.82-.15,1.11-.4h0s0,0,0,0c.16-.14.29-.31.38-.52l9.66-13.02-9.51-3.02v-24.71c0-.99-.66-1.66-1.66-1.66l-59.2,5.62c-.99,0-1.65-.66-1.65-1.65v-41.34c0-.99.66-1.98,1.65-1.98l33.4-3.31c.48,0,.88-.24,1.13-.6h0s.01-.02.01-.02c0,0,0-.01.01-.02l9.62-12.96-11.98-2.63-3.1-17.51c-.33-.99-1-1.65-1.99-1.65l-28.77,2.31c-.99,0-1.65-.66-1.65-1.66v-31.42c0-.99.66-1.65,1.65-1.65l49.28-5.29c.56,0,.99-.22,1.28-.58v.02s9.65-13,9.65-13l-8.71-1.26-.82.49-.41-20.74c0-.99-.66-1.65-1.66-1.65l-79.46,2.09,3.27-9.36-3.32-2.96-9.66,13h0c-.29.29-.45.7-.45,1.2l-7.94,192.48c0,.99.66,1.65,1.66,1.65Z"/>
        <path class="cls-3" d="M609.96,256.42c32.08-.99,63.83-26.46,63.83-69.45,0-64.49-79.04-66.81-79.04-97.23,0-10.25,6.94-17.2,14.88-17.2,6.95,0,14.22,4.96,18.85,17.53.33.99.99,1.32,1.99.99l28.11-12.24c.46-.15.76-.46.93-.82h0s9.66-13.02,9.66-13.02l-13,2.32c-9.72-21.28-28.95-30.81-48.2-30.81-27.78,0-55.56,19.51-55.56,51.26,0,61.51,81.69,56.89,81.69,102.85,0,14.88-11.91,26.46-24.14,26.46-12.9,0-26.13-12.57-26.46-47.96,0-.99-.66-1.65-1.66-1.65l-22.63,1.04,2.9-2.71-7.81-9.26-9.68,13.01h0c-.31.29-.49.71-.49,1.22-3.31,61.18,31.42,87.31,65.81,85.66Z"/>
        <path class="cls-3" d="M695.61,84.44c0,.99,1,1.66,1.99,1.66l42.33-3.64c.99,0,1.65.66,1.65,1.66l-6.61,159.74c0,.99.66,1.66,1.65,1.66l42.33,2.65c.41,0,.74-.14,1.02-.34h.04s.02-.04.02-.04c.2-.16.37-.37.47-.62l9.41-12.61-9.19-40.06.22-110.7c0-.99.66-1.66,1.66-1.66l35.38,3.31c.57,0,1.11-.23,1.49-.6v.02s.2-.26.2-.26c.04-.06.1-.11.13-.17l9.24-12.48-6.84-2.96-.64.89,3.03-26.45c0-.99-.33-1.65-1.32-1.65l-97.5,1.48-24.21-12.01-9.55,12.91s-.08.09-.11.14l-.04.06v.02c-.13.28-.21.62-.21,1.03l3.97,39.02Z"/>
        <path class="cls-3" d="M1013.44,38.81c-2.79,0-13,.65-22.57,2l6.57-7.36h-15.54l-9.23,12.44c-.15.16-.27.32-.36.48l-.03.05h0c-.11.22-.19.44-.19.66l-.33,205.38c0,.99.66,1.65,1.65,1.65l42.99-2.98c.53,0,.95-.2,1.24-.53h0s9.68-13.04,9.68-13.04l-10.15-1.1-3.1-46.18c0-.99.66-1.65,1.65-1.65,46.63-5.62,74.74-40.35,74.08-83.01-.66-43.32-33.07-66.8-76.4-66.8ZM1014.11,145.96c-1,0-1.65-.66-1.65-1.65l-2.98-60.52c0-.99.66-1.66,1.65-1.99,29.1-5.29,35.39,12.57,35.39,26.46,0,20.18-13.56,36.38-32.41,37.7Z"/>
        <path class="cls-3" d="M389.77,377.52c13.55,0,23.53-5.71,30.25-14.44l-.07.15.56-.75c.09-.12.18-.24.26-.36l9.84-13.25-3.87,1.94c2.6-7,3.87-14.81,3.87-22.74,0-23.98-10.58-55.23-39.52-55.23-6.81,0-12.49,1.46-17.24,3.96v-5.19l-9.99,13.41c-.27.34-.52.7-.78,1.05l-1.03,1.38h.05c-6.48,9.51-9.03,22.42-9.03,35,0,23.65,7.11,55.07,36.71,55.07ZM390.43,294.51c13.23,0,20.67,17.36,20.67,33.24,0,12.07-4.79,27.45-19.18,27.45s-19.18-20.01-19.18-31.75c0-14.55,5.95-28.94,17.69-28.94Z"/>
        <path class="cls-3" d="M478.9,351.4c-22.32,0-14.88-63.99-13.23-75.73,0-.5-.16-.83-.66-.83l-12.8-.48,1.29-.92-1.52-12.17-9.8,13.16h0c-.09.12-.15.26-.15.42-3.8,31.09-8.1,101.37,33.07,101.37,13.3,0,22.56-5.22,28.98-13.45v.04s.18-.26.18-.26c.14-.18.27-.36.4-.54l10-13.46h-3c8.19-22.65,6.18-53.95,5.11-73.04,0-.5-.33-.83-.83-.83l-7.4-.24-4.39-13.18-9.63,12.98s-.02.03-.03.04l-.07.09h.03c-.09.14-.18.28-.18.47.16,17.53,5.29,76.56-15.38,76.56Z"/>
        <path class="cls-3" d="M649.1,276.38l-1.92-3.53-10.16,13.69h.06c-6.96,9.58-9.69,22.93-9.69,35.92,0,23.65,7.11,55.07,36.71,55.07,12.64,0,22.17-4.96,28.85-12.71v.08s.56-.77.56-.77c.8-.98,1.57-1.99,2.29-3.04l8.76-11.66-3.54,1.54c2.64-7.03,3.93-14.9,3.93-22.88,0-23.98-10.58-55.23-39.52-55.23-6.38,0-11.76,1.31-16.33,3.53ZM685.45,327.75c0,12.07-4.8,27.45-19.18,27.45s-19.18-20.01-19.18-31.75c0-14.55,5.95-28.94,17.69-28.94,13.23,0,20.67,17.36,20.67,33.24Z"/>
        <path class="cls-3" d="M477.49,391.92c-57.54,0-76.07,50.93-76.07,99.22s14.22,110.13,73.42,110.13c55.89,0,81.69-48.29,81.69-98.89,0-47.96-21.17-110.46-79.04-110.46ZM479.15,556.62c-29.76,0-38.37-40.02-38.37-63.5,0-29.1,11.91-57.88,35.39-57.88,26.46,0,41.34,34.73,41.34,66.48,0,24.14-9.59,54.9-38.37,54.9Z"/>
        <path class="cls-3" d="M720.91,405.81l-33.94-3.74,2.25-1.03-1.93-12.53-10.01,13.33s-.05.06-.07.09l-.06.07h.01c-.09.16-.18.31-.24.5l-37.37,140.89c-.33.99-.66.99-.66,0l-17.86-144.86c0-.99-1-1.65-1.99-1.65l-32.13.98-2.44-12.31-9.76,13.09s-.02.03-.03.05l-.02.02h0c-.19.28-.27.68-.27,1.15l28.77,201.08c0,.99.99,1.65,1.99,1.65l56.55-.33c.6,0,1.06-.26,1.42-.67h.01s.14-.18.14-.18c.04-.06.09-.1.12-.16l9.38-12.62-4.88-1.86,54.34-178.96c.33-.99-.33-1.99-1.32-1.99Z"/>
        <polygon class="cls-3" points="332.72 526.28 373.96 517.79 383.58 504.83 370.7 501.95 370.5 500.99 368.35 501.43 343.21 495.82 369.01 490.12 378.63 477.15 365.62 473.68 365.55 473.32 364.83 473.47 342.4 467.49 332.78 480.46 332.72 498.14 342.09 496.07 332.78 508.6 332.72 526.28"/>
        <path class="cls-3" d="M383.72,585.71l-22.06,1.41-69.82-6.5,77.38-5.01,9.41,6.12,14.57-21.56-11.57-1.3-3.68-27.08c0-.99-.66-1.66-1.65-1.32l-58.87,9.59c-.99,0-1.65-.33-1.65-1.32l4.63-262.99c0-.99-.66-1.65-1.65-1.65l-32.95-1.83,3.33-7.66-3.61-5.35-9.68,13.03h0c-.26.29-.42.67-.42,1.15l-2.31,306.65c0,.99.66,1.65,1.66,1.65l7.19-.47-8.54,11.51-.64,14.94,112.87-4.49,9.62-12.96-11.16-1.04-.38-3.5Z"/>
        <path class="cls-3" d="M949.79,241.67l-5.07.11-84.27-9.15,86.76-1.86c.99,0,1.66-.66,1.66-1.66l9.3-11.93-9.3-2.52v-25.56c0-.99-.66-1.66-1.66-1.66l-49.19,4.67-11.66-5.21v-25.42c0-.99.66-1.98,1.65-1.98l33.4-3.31c.5,0,.91-.25,1.16-.62l9.69-13.08-11.04.68-.37.34-3.73-21.05c-.33-.99-1-1.65-1.99-1.65l-28.77,2.31c-.99,0-1.65-.66-1.65-1.66v-31.42c0-.99.66-1.65,1.65-1.65l49.28-5.29c.56,0,1-.23,1.29-.59v.02s9.7-13.08,9.7-13.08l-9.57.2-.43-21.61c0-.99-.66-1.65-1.66-1.65l-78.32,2.06-.95-12.43-9.83,13.1c-.11.1-.19.23-.27.36h0c-.15.25-.25.54-.25.88l-7.94,181.06c0,.99.66,1.65,1.66,1.65l6.47-.14-8.29,11.17-1.15,12.15,115.05.22,9.62-12.96-10.92-1.19-.06-.67Z"/>
        <path class="cls-3" d="M494,480.28s-.08-.05-.12-.08h-1.62c-3.64,1.03-6.15,3.59-8.38,6.4-2.05,2.59-3.83,5.4-5.73,8.11-.07.09-.13.19-.15.23-1.65-2.36-3.28-4.76-4.98-7.09-.68-.94-1.42-1.82-2.2-2.67l-2.32-15.92-9.62,12.96c-1.52,1.67-2.5,3.61-2.71,5.89,0,.06-.06.11-.09.17v2.43c.12.64.22,1.28.36,1.91.65,2.98,1.9,5.73,3.36,8.39,2.08,3.78,4.53,7.32,7.14,10.74,3.2,4.2,6.73,8.11,10.52,11.77.05.05.1.08.19.15,1.05-1.11,2.09-2.2,3.13-3.3,3.62-3.85,7.12-7.81,10.25-12.08,2.35-3.2,4.51-6.53,6.21-10.13,1.08-2.29,2.1-4.63,2.43-7.17.4-3.06-.11-5.94-2.09-8.42-.93-1.16-2.07-2-3.57-2.29Z"/>
        <polygon class="cls-3" points="1111.03 16.99 1101.18 10.1 1102.15 4.34 1096.98 7.16 1078.07 34.86 1090.18 47.75 1095.35 44.93 1096.42 38.55 1111.03 16.99"/>
        <polygon class="cls-3" points="1137.84 57.74 1139.7 50.61 1134.16 50.93 1129.68 42.65 1112.37 52.21 1100.02 52.93 1098.15 60.06 1105.41 75.87 1137.84 57.74"/>
      </g>
      <g>
        <path class="cls-1" d="M400.06,281.55c-11.74,0-17.69,14.39-17.69,28.94,0,11.74,4.3,31.75,19.18,31.75s19.18-15.38,19.18-27.45c0-15.87-7.44-33.24-20.67-33.24Z"/>
        <path class="cls-1" d="M119.19,69.49c-23.48,0-35.39,28.77-35.39,57.88,0,23.48,8.6,63.5,38.36,63.5s38.36-30.76,38.36-54.9c0-31.75-14.88-66.48-41.34-66.48Z"/>
        <path class="cls-1" d="M485.79,422.28c-23.48,0-35.39,28.77-35.39,57.88,0,23.48,8.6,63.5,38.36,63.5s38.37-30.76,38.37-54.9c0-31.75-14.88-66.48-41.34-66.48ZM509.28,478.02c-.33,2.54-1.35,4.88-2.43,7.17-1.7,3.6-3.86,6.93-6.21,10.13-3.13,4.27-6.63,8.23-10.25,12.08-1.04,1.1-2.08,2.19-3.13,3.3-.09-.07-.14-.1-.19-.15-3.8-3.67-7.32-7.57-10.52-11.77-2.61-3.43-5.07-6.96-7.14-10.74-1.46-2.66-2.71-5.4-3.36-8.39-.14-.63-.24-1.28-.36-1.91v-2.43c.03-.06.08-.11.09-.17.21-2.28,1.19-4.21,2.71-5.89.99-1.1,2.23-1.7,3.73-1.73,2.11-.03,3.9.8,5.49,2.1,1.87,1.53,3.51,3.31,4.93,5.26,1.7,2.34,3.33,4.73,4.98,7.09.03-.04.09-.14.16-.23,1.9-2.71,3.68-5.52,5.73-8.11,2.22-2.81,4.74-5.38,8.38-6.4h1.62s.08.07.12.08c1.5.28,2.65,1.13,3.57,2.29,1.98,2.48,2.49,5.36,2.09,8.42Z"/>
        <path class="cls-1" d="M656.71,310.49c0,2.51.2,5.39.65,8.38l-3.41,9.65,5.17-1.97c2.65,8.38,7.78,15.69,16.77,15.69,14.39,0,19.18-15.38,19.18-27.45,0-15.87-7.44-33.24-20.67-33.24-11.74,0-17.69,14.39-17.69,28.94Z"/>
        <path class="cls-1" d="M1043.94,70.79c-5.33-2.78-12.8-3.85-23.19-1.96-1,.33-1.65.99-1.65,1.99l2.98,60.52c0,.99.66,1.65,1.65,1.65,18.85-1.32,32.41-17.53,32.41-37.7,0-7.05-1.63-15.11-7.02-20.66l7.93-15.37-13.12,11.53Z"/>
        <polygon class="cls-2" points="342.4 495.64 342.35 513.32 383.58 504.83 380.12 488.03 342.4 495.64"/>
        <polygon class="cls-2" points="342.4 467.49 342.35 485.17 378.63 477.15 375.17 460.35 342.4 467.49"/>
        <polygon class="cls-2" points="283.04 579.8 282.4 594.74 395.27 590.25 393.34 572.74 283.04 579.8"/>
        <path class="cls-2" d="M503.62,467.31s-.08-.05-.12-.08h-1.62c-3.64,1.03-6.15,3.59-8.38,6.4-2.05,2.59-3.83,5.4-5.73,8.11-.07.09-.13.19-.16.23-1.65-2.36-3.28-4.76-4.98-7.09-1.42-1.95-3.06-3.72-4.93-5.26-1.58-1.3-3.38-2.13-5.49-2.1-1.5.02-2.74.63-3.73,1.73-1.52,1.67-2.5,3.61-2.71,5.89,0,.06-.06.11-.09.17v2.43c.12.64.22,1.28.36,1.91.65,2.98,1.9,5.73,3.36,8.39,2.08,3.78,4.53,7.32,7.14,10.74,3.2,4.2,6.73,8.11,10.52,11.77.05.05.1.08.19.15,1.05-1.11,2.09-2.2,3.13-3.3,3.62-3.85,7.12-7.81,10.25-12.08,2.35-3.2,4.51-6.53,6.21-10.13,1.08-2.29,2.1-4.63,2.43-7.17.4-3.06-.11-5.94-2.09-8.42-.93-1.16-2.07-2-3.57-2.29Z"/>
        <polygon class="cls-2" points="1116.2 14.18 1102.15 4.34 1083.24 32.04 1095.35 44.93 1116.2 14.18"/>
        <polygon class="cls-2" points="1131.55 35.52 1100.02 52.93 1107.27 68.74 1139.7 50.61 1131.55 35.52"/>
        <polygon class="cls-2" points="1110.02 76.93 1111.27 94.57 1144.44 99.5 1146.76 82.5 1110.02 76.93"/>
        <path class="cls-2" d="M707.22,73.13l42.33-3.64c.99,0,1.65.66,1.65,1.66l-6.61,159.74c0,.99.66,1.66,1.65,1.66l42.33,2.65c.99,0,1.65-.66,1.65-1.66l.21-101.72-7.29-3.17,7.3-1.21.11-56.62c0-.99.66-1.66,1.66-1.66l35.38,3.31c1,0,1.99-.66,1.99-1.65l4.63-40.35c0-.99-.33-1.65-1.32-1.65l-130.3,1.98c-.99,0-1.32.66-1.32,1.65l3.97,39.02c0,.99,1,1.66,1.99,1.66Z"/>
        <path class="cls-2" d="M282.73,567.1c0,.99.66,1.65,1.66,1.65l107.15-6.94c.99,0,1.66-.66,1.66-1.66l-5.63-41.34c0-.99-.66-1.66-1.65-1.32l-58.87,9.59c-.99,0-1.65-.33-1.65-1.32l4.63-262.99c0-.99-.66-1.65-1.65-1.65l-41.67-2.31c-.99,0-1.66.66-1.66,1.65l-1.05,138.46,10.7,5.38-10.77,3.86-1.2,158.95Z"/>
        <path class="cls-2" d="M487.12,378.96c-57.54,0-76.07,50.93-76.07,99.22s14.22,110.13,73.42,110.13c31.68,0,53.68-15.51,66.81-38.16l-7.36-12.98,9.74,8.59c8.42-16.49,12.5-36.23,12.5-56.34,0-47.96-21.17-110.46-79.04-110.46ZM488.77,543.66c-29.76,0-38.36-40.02-38.36-63.5,0-29.1,11.91-57.88,35.39-57.88,26.46,0,41.34,34.73,41.34,66.48,0,24.14-9.59,54.9-38.37,54.9Z"/>
        <path class="cls-2" d="M859.85,538.69l-59.2,5.62c-1,0-1.66-.66-1.66-1.65v-41.34c0-.99.66-1.98,1.66-1.98l33.4-3.31c.99,0,1.65-.99,1.32-1.98l-5.63-31.75c-.33-.99-.99-1.65-1.98-1.65l-28.78,2.31c-.99,0-1.65-.66-1.65-1.66v-31.42c0-.99.66-1.65,1.65-1.65l49.28-5.29c.99,0,1.65-.66,1.65-1.65l-.66-33.4c0-.99-.66-1.65-1.65-1.65l-10.67.28-7.9,9.9,2.89-9.77-72.3,1.9c-.99,0-1.65.66-1.65,1.65l-7.93,192.48c0,.99.66,1.65,1.65,1.65l108.15-2.31c.99,0,1.65-.66,1.65-1.65v-40.02c0-.99-.66-1.66-1.65-1.66Z"/>
        <path class="cls-2" d="M1023.07,25.84c-5.63,0-41.34,2.65-41.34,8.27l-.33,205.38c0,.99.66,1.65,1.65,1.65l42.99-2.98c.99,0,1.65-.66,1.65-1.65l-3.97-59.2c0-.99.66-1.65,1.65-1.65,46.63-5.62,74.74-40.35,74.08-83.01-.66-43.32-33.07-66.8-76.4-66.8ZM1056.14,95.29c0,20.18-13.56,36.38-32.41,37.7-1,0-1.65-.66-1.65-1.65l-2.98-60.52c0-.99.66-1.66,1.65-1.99,10.39-1.89,17.86-.82,23.19,1.96l13.12-11.53-7.93,15.37c5.39,5.55,7.02,13.61,7.02,20.66Z"/>
        <path class="cls-2" d="M619.58,243.45c24.46-.76,48.72-15.76,58.86-41.9l-6.23-8.9h9.03c1.4-5.78,2.16-12.01,2.16-18.65,0-64.49-79.04-66.81-79.04-97.23,0-10.25,6.94-17.2,14.88-17.2,6.95,0,14.22,4.96,18.85,17.53.33.99.99,1.32,1.99.99l28.11-12.24c.99-.33,1.32-1.32.99-2.32-7.93-27.78-29.76-40.01-51.59-40.01-27.78,0-55.56,19.51-55.56,51.26,0,61.52,81.69,56.89,81.69,102.85,0,14.88-11.91,26.46-24.14,26.46-12.9,0-26.13-12.57-26.46-47.96,0-.99-.66-1.65-1.66-1.65l-36.05,1.65c-.99,0-1.65.66-1.65,1.66-3.31,61.18,31.42,87.31,65.81,85.66Z"/>
        <path class="cls-2" d="M260.41,135.31l52.92,98.56c.33.99,1.32,1.32,2.31,1.32l35.72-2.98c.99,0,1.65-.66,1.65-1.66l1.88-124.27-14.13,17.21,14.31-28.9.92-60.81c0-.99-.66-1.66-1.65-1.66l-41.34-.33c-.99,0-1.65.66-1.65,1.66l2.98,119.72c0,.99-.33,1.32-.66.33l-53.24-120.71c-.33-.99-1.32-1.32-2.32-1.32l-36.05.33c-.99,0-1.65.66-1.65,1.66l-2.98,201.41c0,.99.66,1.65,1.65,1.65l42.66-4.3c1,0,1.66-.66,1.66-1.66l-3.64-94.92c0-.99.33-1.32.66-.33Z"/>
        <path class="cls-2" d="M637.03,309.49c0,23.65,7.11,55.07,36.71,55.07,27.95,0,40.85-24.14,40.85-49.44,0-23.98-10.58-55.23-39.52-55.23s-38.03,25.47-38.03,49.61ZM695.07,314.78c0,12.07-4.8,27.45-19.18,27.45-8.99,0-14.12-7.31-16.77-15.69l-5.17,1.97,3.41-9.65c-.45-2.99-.65-5.87-.65-8.38,0-14.55,5.95-28.94,17.69-28.94,13.23,0,20.67,17.36,20.67,33.24Z"/>
        <path class="cls-2" d="M600.65,282.21l2.31-20.17c0-.5-.17-.83-.66-.83l-44.79.68,1.02,4.75-7.04-4.66-14.33.22c-.5,0-.66.33-.66.83l1.99,19.51c0,.5.5.83.99.83l21.17-1.82c.5,0,.83.33.83.83l-3.31,79.87c0,.5.33.83.83.83l21.17,1.32c.5,0,.82-.33.82-.83l.17-81.36c0-.5.33-.83.83-.83l17.69,1.65c.5,0,.99-.33.99-.83Z"/>
        <path class="cls-2" d="M475.3,262.7c0-.5-.16-.83-.66-.83l-21.99-.83c-.5,0-.99.33-.99.83-3.08,25.21-6.49,76.2,14.29,94.57l4.59-3.78-1.8,5.95c4.36,2.95,9.63,4.63,15.99,4.63,48.12,0,43.49-68.13,41.67-100.71,0-.5-.33-.83-.83-.83l-20.84-.66c-.5,0-.82.33-.82.83.16,17.53,5.29,76.56-15.38,76.56-22.32,0-14.88-63.99-13.23-75.73Z"/>
        <path class="cls-2" d="M745.84,320.74l72.5-3.56-15.89,13.22,8.74,12.04,21.12-18.45-.67-4.02,2.29,2.61,14.07-12.29v-6.35l-29.23-24.31-2.78,6.39.91-7.94-4.82-4.01-9.64,9.76,16.4,14.32-73.01,2.09c-.5,0-.83-.33-.83-.99l-.17-14.88c0-.5.33-.83.83-.83l37.54-3.8c.5,0,.83-.33.83-.83l1.16-16.53c0-.5-.33-.83-.99-.83l-41.07.23-2.7,6.89-.93-6.87-13.17.07c-.5,0-.83.33-.83.83l-1.98,101.37c0,.5.33.83.99.83h20.34c.5,0,.83-.33.83-.83l-.66-42.33c0-.5.33-.83.83-.99Z"/>
        <path class="cls-2" d="M440.24,315.12c0-17.53-5.67-38.93-20.02-49.18l-3.83,6.92v-9.27c-4.49-2.34-9.68-3.69-15.67-3.69-28.77,0-38.03,25.47-38.03,49.61s7.11,55.07,36.71,55.07c27.94,0,40.84-24.14,40.84-49.44ZM401.54,342.24c-14.88,0-19.18-20.01-19.18-31.75,0-14.55,5.95-28.94,17.69-28.94,13.23,0,20.67,17.36,20.67,33.24,0,12.07-4.79,27.45-19.18,27.45Z"/>
        <path class="cls-2" d="M730.54,392.84l-42-4.63c-.99,0-1.65.33-1.98,1.32l-37.37,140.89c-.33.99-.66.99-.66,0l-17.86-144.86c0-.99-1-1.65-1.99-1.65l-14.52.44v12.05l-3.41-11.95-25.39.77c-.99,0-1.32.66-1.32,1.66l28.77,201.08c0,.99.99,1.65,1.99,1.65l56.55-.33c.99,0,1.66-.66,1.98-1.65l10.75-35.42-3.74-12.08,5.39,6.67,46.14-151.98c.33-.99-.33-1.99-1.32-1.99Z"/>
        <path class="cls-2" d="M120.51,26.17c-57.55,0-76.07,50.93-76.07,99.22,0,23.19,3.42,50.1,13.88,71.53l15.85-12.65-12.92,18.17c11.16,19.4,28.99,33.08,56.61,33.08,55.89,0,81.69-48.28,81.69-98.88,0-47.96-21.17-110.46-79.04-110.46ZM122.16,190.87c-29.77,0-38.36-40.02-38.36-63.5,0-29.1,11.91-57.88,35.39-57.88,26.46,0,41.34,34.73,41.34,66.48,0,24.14-9.59,54.9-38.36,54.9Z"/>
        <path class="cls-2" d="M79.23,22.34v-8.1l3.46,6.21c13.84-7.12,25.29-7.94,25.29-7.94L103.17-.1C12.23,9.24,17.51,113.81,17.51,113.81l17.35-.42c.95-54.29,24.31-79.44,44.38-91.05Z"/>
        <path class="cls-2" d="M375.5,231.55l108.15-2.31c.99,0,1.66-.66,1.66-1.66v-40.02c0-.99-.66-1.66-1.66-1.66l-59.2,5.62c-.99,0-1.65-.66-1.65-1.65v-41.34c0-.99.66-1.98,1.65-1.98l33.4-3.31c1,0,1.66-.99,1.32-1.98l-5.62-31.75c-.33-.99-1-1.65-1.99-1.65l-28.77,2.31c-.99,0-1.65-.66-1.65-1.66v-31.42c0-.99.66-1.65,1.65-1.65l49.28-5.29c.99,0,1.65-.66,1.65-1.65l-.66-33.4c0-.99-.66-1.65-1.66-1.65l-87.97,2.31c-.99,0-1.65.66-1.65,1.65l-6.2,150.22,6.35,4.24-6.65,3.09-1.44,34.93c0,.99.66,1.65,1.66,1.65Z"/>
        <path class="cls-2" d="M848.69,220.13l108.15-2.31c.99,0,1.66-.66,1.66-1.66v-40.01c0-.99-.66-1.66-1.66-1.66l-59.2,5.62c-.99,0-1.65-.66-1.65-1.65v-29.92c0-.99.66-1.98,1.65-1.98l33.4-3.31c1,0,1.66-.99,1.32-1.98l-5.62-31.75c-.33-.99-1-1.65-1.99-1.65l-28.77,2.31c-.99,0-1.65-.66-1.65-1.66v-31.42c0-.99.66-1.65,1.65-1.65l49.28-5.29c.99,0,1.65-.66,1.65-1.65l-.66-33.4c0-.99-.66-1.65-1.66-1.65l-31.54.83-7.5,7.55.7-7.37-49.63,1.31c-.99,0-1.65.66-1.65,1.65l-7.94,181.06c0,.99.66,1.65,1.66,1.65Z"/>
        <polygon class="cls-2" points="846.86 231.16 845.71 243.31 870.31 243.35 874.91 239.94 874.91 243.36 960.77 243.53 959.41 228.71 846.86 231.16"/>
      </g>
      <path class="cls-1" d="M420.73,314.78c0,12.07-4.79,27.45-19.18,27.45s-19.18-20.01-19.18-31.75c0-14.55,5.95-28.94,17.69-28.94,13.23,0,20.67,17.36,20.67,33.24ZM119.19,69.49c-23.48,0-35.39,28.77-35.39,57.88,0,23.48,8.6,63.5,38.36,63.5s38.36-30.76,38.36-54.9c0-31.75-14.88-66.48-41.34-66.48ZM527.14,488.75c0,24.14-9.59,54.9-38.37,54.9s-38.36-40.02-38.36-63.5c0-29.1,11.91-57.88,35.39-57.88,26.46,0,41.34,34.73,41.34,66.48ZM507.19,469.6c-.93-1.16-2.07-2-3.57-2.29-.04,0-.08-.05-.12-.08h-1.62c-3.64,1.03-6.15,3.59-8.38,6.4-2.05,2.59-3.83,5.4-5.73,8.11-.07.09-.13.19-.16.23-1.65-2.36-3.28-4.76-4.98-7.09-1.42-1.95-3.06-3.72-4.93-5.26-1.58-1.3-3.38-2.13-5.49-2.1-1.5.02-2.74.63-3.73,1.73-1.52,1.67-2.5,3.61-2.71,5.89,0,.06-.06.11-.09.17v2.43c.12.64.22,1.28.36,1.91.65,2.98,1.9,5.73,3.36,8.39,2.08,3.78,4.53,7.32,7.14,10.74,3.2,4.2,6.73,8.11,10.52,11.77.05.05.1.08.19.15,1.05-1.11,2.09-2.2,3.13-3.3,3.62-3.85,7.12-7.81,10.25-12.08,2.35-3.2,4.51-6.53,6.21-10.13,1.08-2.29,2.1-4.63,2.43-7.17.4-3.06-.11-5.94-2.09-8.42ZM656.71,310.49c0,2.51.2,5.39.65,8.38l-3.41,9.65,5.17-1.97c2.65,8.38,7.78,15.69,16.77,15.69,14.39,0,19.18-15.38,19.18-27.45,0-15.87-7.44-33.24-20.67-33.24-11.74,0-17.69,14.39-17.69,28.94ZM1043.94,70.79c-5.33-2.78-12.8-3.85-23.19-1.96-1,.33-1.65.99-1.65,1.99l2.98,60.52c0,.99.66,1.65,1.65,1.65,18.85-1.32,32.41-17.53,32.41-37.7,0-7.05-1.63-15.11-7.02-20.66l7.93-15.37-13.12,11.53ZM342.4,495.64l-.06,17.68,41.23-8.49-3.46-16.8-37.72,7.61ZM342.4,467.49l-.06,17.68,36.28-8.02-3.46-16.8-32.77,7.14ZM283.04,579.8l-.64,14.94,112.87-4.49-1.92-17.51-110.3,7.05ZM503.62,467.31s-.08-.05-.12-.08h-1.62c-3.64,1.03-6.15,3.59-8.38,6.4-2.05,2.59-3.83,5.4-5.73,8.11-.07.09-.13.19-.16.23-1.65-2.36-3.28-4.76-4.98-7.09-1.42-1.95-3.06-3.72-4.93-5.26-1.58-1.3-3.38-2.13-5.49-2.1-1.5.02-2.74.63-3.73,1.73-1.52,1.67-2.5,3.61-2.71,5.89,0,.06-.06.11-.09.17v2.43c.12.64.22,1.28.36,1.91.65,2.98,1.9,5.73,3.36,8.39,2.08,3.78,4.53,7.32,7.14,10.74,3.2,4.2,6.73,8.11,10.52,11.77.05.05.1.08.19.15,1.05-1.11,2.09-2.2,3.13-3.3,3.62-3.85,7.12-7.81,10.25-12.08,2.35-3.2,4.51-6.53,6.21-10.13,1.08-2.29,2.1-4.63,2.43-7.17.4-3.06-.11-5.94-2.09-8.42-.93-1.16-2.07-2-3.57-2.29ZM1116.2,14.18l-14.05-9.83-18.91,27.7,12.1,12.89,20.86-30.75ZM1131.55,35.52l-31.53,17.41,7.25,15.81,32.43-18.14-8.15-15.09ZM1110.02,76.93l1.24,17.64,33.17,4.93,2.32-16.99-36.74-5.57ZM707.22,73.13l42.33-3.64c.99,0,1.65.66,1.65,1.66l-6.61,159.74c0,.99.66,1.66,1.65,1.66l42.33,2.65c.99,0,1.65-.66,1.65-1.66l.21-101.72-7.29-3.17,7.3-1.21.11-56.62c0-.99.66-1.66,1.66-1.66l35.38,3.31c1,0,1.99-.66,1.99-1.65l4.63-40.35c0-.99-.33-1.65-1.32-1.65l-130.3,1.98c-.99,0-1.32.66-1.32,1.65l3.97,39.02c0,.99,1,1.66,1.99,1.66ZM282.73,567.1c0,.99.66,1.65,1.66,1.65l107.15-6.94c.99,0,1.66-.66,1.66-1.66l-5.63-41.34c0-.99-.66-1.66-1.65-1.32l-58.87,9.59c-.99,0-1.65-.33-1.65-1.32l4.63-262.99c0-.99-.66-1.65-1.65-1.65l-41.67-2.31c-.99,0-1.66.66-1.66,1.65l-1.05,138.46,10.7,5.38-10.77,3.86-1.2,158.95ZM566.16,489.42c0,20.11-4.08,39.85-12.5,56.34l-9.74-8.59,7.36,12.98c-13.13,22.65-35.13,38.16-66.81,38.16-59.2,0-73.42-62.84-73.42-110.13s18.52-99.22,76.07-99.22,79.04,62.51,79.04,110.46ZM527.14,488.75c0-31.75-14.88-66.48-41.34-66.48-23.48,0-35.39,28.77-35.39,57.88,0,23.48,8.6,63.5,38.36,63.5s38.37-30.76,38.37-54.9ZM859.85,538.69l-59.2,5.62c-1,0-1.66-.66-1.66-1.65v-41.34c0-.99.66-1.98,1.66-1.98l33.4-3.31c.99,0,1.65-.99,1.32-1.98l-5.63-31.75c-.33-.99-.99-1.65-1.98-1.65l-28.78,2.31c-.99,0-1.65-.66-1.65-1.66v-31.42c0-.99.66-1.65,1.65-1.65l49.28-5.29c.99,0,1.65-.66,1.65-1.65l-.66-33.4c0-.99-.66-1.65-1.65-1.65l-10.67.28-7.9,9.9,2.89-9.77-72.3,1.9c-.99,0-1.65.66-1.65,1.65l-7.93,192.48c0,.99.66,1.65,1.65,1.65l108.15-2.31c.99,0,1.65-.66,1.65-1.65v-40.02c0-.99-.66-1.66-1.65-1.66ZM1099.46,92.64c.66,42.66-27.45,77.39-74.08,83.01-.99,0-1.65.66-1.65,1.65l3.97,59.2c0,.99-.66,1.65-1.65,1.65l-42.99,2.98c-.99,0-1.65-.66-1.65-1.65l.33-205.38c0-5.62,35.72-8.27,41.34-8.27,43.32,0,75.73,23.48,76.4,66.8ZM1049.12,74.63l7.93-15.37-13.12,11.53c-5.33-2.78-12.8-3.85-23.19-1.96-1,.33-1.65.99-1.65,1.99l2.98,60.52c0,.99.66,1.65,1.65,1.65,18.85-1.32,32.41-17.53,32.41-37.7,0-7.05-1.63-15.11-7.02-20.66ZM619.58,243.45c24.46-.76,48.72-15.76,58.86-41.9l-6.23-8.9h9.03c1.4-5.78,2.16-12.01,2.16-18.65,0-64.49-79.04-66.81-79.04-97.23,0-10.25,6.94-17.2,14.88-17.2,6.95,0,14.22,4.96,18.85,17.53.33.99.99,1.32,1.99.99l28.11-12.24c.99-.33,1.32-1.32.99-2.32-7.93-27.78-29.76-40.01-51.59-40.01-27.78,0-55.56,19.51-55.56,51.26,0,61.52,81.69,56.89,81.69,102.85,0,14.88-11.91,26.46-24.14,26.46-12.9,0-26.13-12.57-26.46-47.96,0-.99-.66-1.65-1.66-1.65l-36.05,1.65c-.99,0-1.65.66-1.65,1.66-3.31,61.18,31.42,87.31,65.81,85.66ZM260.41,135.31l52.92,98.56c.33.99,1.32,1.32,2.31,1.32l35.72-2.98c.99,0,1.65-.66,1.65-1.66l1.88-124.27-14.13,17.21,14.31-28.9.92-60.81c0-.99-.66-1.66-1.65-1.66l-41.34-.33c-.99,0-1.65.66-1.65,1.66l2.98,119.72c0,.99-.33,1.32-.66.33l-53.24-120.71c-.33-.99-1.32-1.32-2.32-1.32l-36.05.33c-.99,0-1.65.66-1.65,1.66l-2.98,201.41c0,.99.66,1.65,1.65,1.65l42.66-4.3c1,0,1.66-.66,1.66-1.66l-3.64-94.92c0-.99.33-1.32.66-.33ZM675.06,259.89c28.94,0,39.52,31.25,39.52,55.23,0,25.3-12.9,49.44-40.85,49.44-29.6,0-36.71-31.42-36.71-55.07s9.26-49.61,38.03-49.61ZM674.4,281.55c-11.74,0-17.69,14.39-17.69,28.94,0,2.51.2,5.39.65,8.38l-3.41,9.65,5.17-1.97c2.65,8.38,7.78,15.69,16.77,15.69,14.39,0,19.18-15.38,19.18-27.45,0-15.87-7.44-33.24-20.67-33.24ZM600.65,282.21l2.31-20.17c0-.5-.17-.83-.66-.83l-44.79.68,1.02,4.75-7.04-4.66-14.33.22c-.5,0-.66.33-.66.83l1.99,19.51c0,.5.5.83.99.83l21.17-1.82c.5,0,.83.33.83.83l-3.31,79.87c0,.5.33.83.83.83l21.17,1.32c.5,0,.82-.33.82-.83l.17-81.36c0-.5.33-.83.83-.83l17.69,1.65c.5,0,.99-.33.99-.83ZM475.3,262.7c0-.5-.16-.83-.66-.83l-21.99-.83c-.5,0-.99.33-.99.83-3.08,25.21-6.49,76.2,14.29,94.57l4.59-3.78-1.8,5.95c4.36,2.95,9.63,4.63,15.99,4.63,48.12,0,43.49-68.13,41.67-100.71,0-.5-.33-.83-.83-.83l-20.84-.66c-.5,0-.82.33-.82.83.16,17.53,5.29,76.56-15.38,76.56-22.32,0-14.88-63.99-13.23-75.73ZM745.84,320.74l72.5-3.56-15.89,13.22,8.74,12.04,21.12-18.45-.67-4.02,2.29,2.61,14.07-12.29v-6.35l-29.23-24.31-2.78,6.39.91-7.94-4.82-4.01-9.64,9.76,16.4,14.32-73.01,2.09c-.5,0-.83-.33-.83-.99l-.17-14.88c0-.5.33-.83.83-.83l37.54-3.8c.5,0,.83-.33.83-.83l1.16-16.53c0-.5-.33-.83-.99-.83l-41.07.23-2.7,6.89-.93-6.87-13.17.07c-.5,0-.83.33-.83.83l-1.98,101.37c0,.5.33.83.99.83h20.34c.5,0,.83-.33.83-.83l-.66-42.33c0-.5.33-.83.83-.99ZM399.4,364.56c-29.6,0-36.71-31.42-36.71-55.07s9.26-49.61,38.03-49.61c5.99,0,11.19,1.36,15.67,3.69v9.27l3.83-6.92c14.35,10.25,20.02,31.66,20.02,49.18,0,25.3-12.9,49.44-40.84,49.44ZM420.73,314.78c0-15.87-7.44-33.24-20.67-33.24-11.74,0-17.69,14.39-17.69,28.94,0,11.74,4.3,31.75,19.18,31.75s19.18-15.38,19.18-27.45ZM730.54,392.84l-42-4.63c-.99,0-1.65.33-1.98,1.32l-37.37,140.89c-.33.99-.66.99-.66,0l-17.86-144.86c0-.99-1-1.65-1.99-1.65l-14.52.44v12.05l-3.41-11.95-25.39.77c-.99,0-1.32.66-1.32,1.66l28.77,201.08c0,.99.99,1.65,1.99,1.65l56.55-.33c.99,0,1.66-.66,1.98-1.65l10.75-35.42-3.74-12.08,5.39,6.67,46.14-151.98c.33-.99-.33-1.99-1.32-1.99ZM199.55,136.63c0,50.6-25.8,98.88-81.69,98.88-27.62,0-45.45-13.68-56.61-33.08l12.92-18.17-15.85,12.65c-10.46-21.42-13.88-48.34-13.88-71.53,0-48.29,18.52-99.22,76.07-99.22s79.04,62.51,79.04,110.46ZM160.53,135.97c0-31.75-14.88-66.48-41.34-66.48-23.48,0-35.39,28.77-35.39,57.88,0,23.48,8.6,63.5,38.36,63.5s38.36-30.76,38.36-54.9ZM79.23,22.34v-8.1l3.46,6.21c13.84-7.12,25.29-7.94,25.29-7.94L103.17-.1C12.23,9.24,17.51,113.81,17.51,113.81l17.35-.42c.95-54.29,24.31-79.44,44.38-91.05ZM375.5,231.55l108.15-2.31c.99,0,1.66-.66,1.66-1.66v-40.02c0-.99-.66-1.66-1.66-1.66l-59.2,5.62c-.99,0-1.65-.66-1.65-1.65v-41.34c0-.99.66-1.98,1.65-1.98l33.4-3.31c1,0,1.66-.99,1.32-1.98l-5.62-31.75c-.33-.99-1-1.65-1.99-1.65l-28.77,2.31c-.99,0-1.65-.66-1.65-1.66v-31.42c0-.99.66-1.65,1.65-1.65l49.28-5.29c.99,0,1.65-.66,1.65-1.65l-.66-33.4c0-.99-.66-1.65-1.66-1.65l-87.97,2.31c-.99,0-1.65.66-1.65,1.65l-6.2,150.22,6.35,4.24-6.65,3.09-1.44,34.93c0,.99.66,1.65,1.66,1.65ZM848.69,220.13l108.15-2.31c.99,0,1.66-.66,1.66-1.66v-40.01c0-.99-.66-1.66-1.66-1.66l-59.2,5.62c-.99,0-1.65-.66-1.65-1.65v-29.92c0-.99.66-1.98,1.65-1.98l33.4-3.31c1,0,1.66-.99,1.32-1.98l-5.62-31.75c-.33-.99-1-1.65-1.99-1.65l-28.77,2.31c-.99,0-1.65-.66-1.65-1.66v-31.42c0-.99.66-1.65,1.65-1.65l49.28-5.29c.99,0,1.65-.66,1.65-1.65l-.66-33.4c0-.99-.66-1.65-1.66-1.65l-31.54.83-7.5,7.55.7-7.37-49.63,1.31c-.99,0-1.65.66-1.65,1.65l-7.94,181.06c0,.99.66,1.65,1.66,1.65ZM846.86,231.16l-1.15,12.15,24.6.05,4.61-3.42v3.43l85.85.16-1.35-14.82-112.55,2.45Z"/>
      <path class="cls-1" d="M420.73,314.78c0,12.07-4.79,27.45-19.18,27.45s-19.18-20.01-19.18-31.75c0-14.55,5.95-28.94,17.69-28.94,13.23,0,20.67,17.36,20.67,33.24ZM119.19,69.49c-23.48,0-35.39,28.77-35.39,57.88,0,23.48,8.6,63.5,38.36,63.5s38.36-30.76,38.36-54.9c0-31.75-14.88-66.48-41.34-66.48ZM527.14,488.75c0,24.14-9.59,54.9-38.37,54.9s-38.36-40.02-38.36-63.5c0-29.1,11.91-57.88,35.39-57.88,26.46,0,41.34,34.73,41.34,66.48ZM507.19,469.6c-.93-1.16-2.07-2-3.57-2.29-.04,0-.08-.05-.12-.08h-1.62c-3.64,1.03-6.15,3.59-8.38,6.4-2.05,2.59-3.83,5.4-5.73,8.11-.07.09-.13.19-.16.23-1.65-2.36-3.28-4.76-4.98-7.09-1.42-1.95-3.06-3.72-4.93-5.26-1.58-1.3-3.38-2.13-5.49-2.1-1.5.02-2.74.63-3.73,1.73-1.52,1.67-2.5,3.61-2.71,5.89,0,.06-.06.11-.09.17v2.43c.12.64.22,1.28.36,1.91.65,2.98,1.9,5.73,3.36,8.39,2.08,3.78,4.53,7.32,7.14,10.74,3.2,4.2,6.73,8.11,10.52,11.77.05.05.1.08.19.15,1.05-1.11,2.09-2.2,3.13-3.3,3.62-3.85,7.12-7.81,10.25-12.08,2.35-3.2,4.51-6.53,6.21-10.13,1.08-2.29,2.1-4.63,2.43-7.17.4-3.06-.11-5.94-2.09-8.42ZM656.71,310.49c0,2.51.2,5.39.65,8.38l-3.41,9.65,5.17-1.97c2.65,8.38,7.78,15.69,16.77,15.69,14.39,0,19.18-15.38,19.18-27.45,0-15.87-7.44-33.24-20.67-33.24-11.74,0-17.69,14.39-17.69,28.94ZM1043.94,70.79c-5.33-2.78-12.8-3.85-23.19-1.96-1,.33-1.65.99-1.65,1.99l2.98,60.52c0,.99.66,1.65,1.65,1.65,18.85-1.32,32.41-17.53,32.41-37.7,0-7.05-1.63-15.11-7.02-20.66l7.93-15.37-13.12,11.53ZM342.4,495.64l-.06,17.68,41.23-8.49-3.46-16.8-37.72,7.61ZM342.4,467.49l-.06,17.68,36.28-8.02-3.46-16.8-32.77,7.14ZM283.04,579.8l-.64,14.94,112.87-4.49-1.92-17.51-110.3,7.05ZM503.62,467.31s-.08-.05-.12-.08h-1.62c-3.64,1.03-6.15,3.59-8.38,6.4-2.05,2.59-3.83,5.4-5.73,8.11-.07.09-.13.19-.16.23-1.65-2.36-3.28-4.76-4.98-7.09-1.42-1.95-3.06-3.72-4.93-5.26-1.58-1.3-3.38-2.13-5.49-2.1-1.5.02-2.74.63-3.73,1.73-1.52,1.67-2.5,3.61-2.71,5.89,0,.06-.06.11-.09.17v2.43c.12.64.22,1.28.36,1.91.65,2.98,1.9,5.73,3.36,8.39,2.08,3.78,4.53,7.32,7.14,10.74,3.2,4.2,6.73,8.11,10.52,11.77.05.05.1.08.19.15,1.05-1.11,2.09-2.2,3.13-3.3,3.62-3.85,7.12-7.81,10.25-12.08,2.35-3.2,4.51-6.53,6.21-10.13,1.08-2.29,2.1-4.63,2.43-7.17.4-3.06-.11-5.94-2.09-8.42-.93-1.16-2.07-2-3.57-2.29ZM1116.2,14.18l-14.05-9.83-18.91,27.7,12.1,12.89,20.86-30.75ZM1131.55,35.52l-31.53,17.41,7.25,15.81,32.43-18.14-8.15-15.09ZM1110.02,76.93l1.24,17.64,33.17,4.93,2.32-16.99-36.74-5.57ZM707.22,73.13l42.33-3.64c.99,0,1.65.66,1.65,1.66l-6.61,159.74c0,.99.66,1.66,1.65,1.66l42.33,2.65c.99,0,1.65-.66,1.65-1.66l.21-101.72-7.29-3.17,7.3-1.21.11-56.62c0-.99.66-1.66,1.66-1.66l35.38,3.31c1,0,1.99-.66,1.99-1.65l4.63-40.35c0-.99-.33-1.65-1.32-1.65l-130.3,1.98c-.99,0-1.32.66-1.32,1.65l3.97,39.02c0,.99,1,1.66,1.99,1.66ZM282.73,567.1c0,.99.66,1.65,1.66,1.65l107.15-6.94c.99,0,1.66-.66,1.66-1.66l-5.63-41.34c0-.99-.66-1.66-1.65-1.32l-58.87,9.59c-.99,0-1.65-.33-1.65-1.32l4.63-262.99c0-.99-.66-1.65-1.65-1.65l-41.67-2.31c-.99,0-1.66.66-1.66,1.65l-1.05,138.46,10.7,5.38-10.77,3.86-1.2,158.95ZM566.16,489.42c0,20.11-4.08,39.85-12.5,56.34l-9.74-8.59,7.36,12.98c-13.13,22.65-35.13,38.16-66.81,38.16-59.2,0-73.42-62.84-73.42-110.13s18.52-99.22,76.07-99.22,79.04,62.51,79.04,110.46ZM527.14,488.75c0-31.75-14.88-66.48-41.34-66.48-23.48,0-35.39,28.77-35.39,57.88,0,23.48,8.6,63.5,38.36,63.5s38.37-30.76,38.37-54.9ZM859.85,538.69l-59.2,5.62c-1,0-1.66-.66-1.66-1.65v-41.34c0-.99.66-1.98,1.66-1.98l33.4-3.31c.99,0,1.65-.99,1.32-1.98l-5.63-31.75c-.33-.99-.99-1.65-1.98-1.65l-28.78,2.31c-.99,0-1.65-.66-1.65-1.66v-31.42c0-.99.66-1.65,1.65-1.65l49.28-5.29c.99,0,1.65-.66,1.65-1.65l-.66-33.4c0-.99-.66-1.65-1.65-1.65l-10.67.28-7.9,9.9,2.89-9.77-72.3,1.9c-.99,0-1.65.66-1.65,1.65l-7.93,192.48c0,.99.66,1.65,1.65,1.65l108.15-2.31c.99,0,1.65-.66,1.65-1.65v-40.02c0-.99-.66-1.66-1.65-1.66ZM1099.46,92.64c.66,42.66-27.45,77.39-74.08,83.01-.99,0-1.65.66-1.65,1.65l3.97,59.2c0,.99-.66,1.65-1.65,1.65l-42.99,2.98c-.99,0-1.65-.66-1.65-1.65l.33-205.38c0-5.62,35.72-8.27,41.34-8.27,43.32,0,75.73,23.48,76.4,66.8ZM1049.12,74.63l7.93-15.37-13.12,11.53c-5.33-2.78-12.8-3.85-23.19-1.96-1,.33-1.65.99-1.65,1.99l2.98,60.52c0,.99.66,1.65,1.65,1.65,18.85-1.32,32.41-17.53,32.41-37.7,0-7.05-1.63-15.11-7.02-20.66ZM619.58,243.45c24.46-.76,48.72-15.76,58.86-41.9l-6.23-8.9h9.03c1.4-5.78,2.16-12.01,2.16-18.65,0-64.49-79.04-66.81-79.04-97.23,0-10.25,6.94-17.2,14.88-17.2,6.95,0,14.22,4.96,18.85,17.53.33.99.99,1.32,1.99.99l28.11-12.24c.99-.33,1.32-1.32.99-2.32-7.93-27.78-29.76-40.01-51.59-40.01-27.78,0-55.56,19.51-55.56,51.26,0,61.52,81.69,56.89,81.69,102.85,0,14.88-11.91,26.46-24.14,26.46-12.9,0-26.13-12.57-26.46-47.96,0-.99-.66-1.65-1.66-1.65l-36.05,1.65c-.99,0-1.65.66-1.65,1.66-3.31,61.18,31.42,87.31,65.81,85.66ZM260.41,135.31l52.92,98.56c.33.99,1.32,1.32,2.31,1.32l35.72-2.98c.99,0,1.65-.66,1.65-1.66l1.88-124.27-14.13,17.21,14.31-28.9.92-60.81c0-.99-.66-1.66-1.65-1.66l-41.34-.33c-.99,0-1.65.66-1.65,1.66l2.98,119.72c0,.99-.33,1.32-.66.33l-53.24-120.71c-.33-.99-1.32-1.32-2.32-1.32l-36.05.33c-.99,0-1.65.66-1.65,1.66l-2.98,201.41c0,.99.66,1.65,1.65,1.65l42.66-4.3c1,0,1.66-.66,1.66-1.66l-3.64-94.92c0-.99.33-1.32.66-.33ZM675.06,259.89c28.94,0,39.52,31.25,39.52,55.23,0,25.3-12.9,49.44-40.85,49.44-29.6,0-36.71-31.42-36.71-55.07s9.26-49.61,38.03-49.61ZM674.4,281.55c-11.74,0-17.69,14.39-17.69,28.94,0,2.51.2,5.39.65,8.38l-3.41,9.65,5.17-1.97c2.65,8.38,7.78,15.69,16.77,15.69,14.39,0,19.18-15.38,19.18-27.45,0-15.87-7.44-33.24-20.67-33.24ZM600.65,282.21l2.31-20.17c0-.5-.17-.83-.66-.83l-44.79.68,1.02,4.75-7.04-4.66-14.33.22c-.5,0-.66.33-.66.83l1.99,19.51c0,.5.5.83.99.83l21.17-1.82c.5,0,.83.33.83.83l-3.31,79.87c0,.5.33.83.83.83l21.17,1.32c.5,0,.82-.33.82-.83l.17-81.36c0-.5.33-.83.83-.83l17.69,1.65c.5,0,.99-.33.99-.83ZM475.3,262.7c0-.5-.16-.83-.66-.83l-21.99-.83c-.5,0-.99.33-.99.83-3.08,25.21-6.49,76.2,14.29,94.57l4.59-3.78-1.8,5.95c4.36,2.95,9.63,4.63,15.99,4.63,48.12,0,43.49-68.13,41.67-100.71,0-.5-.33-.83-.83-.83l-20.84-.66c-.5,0-.82.33-.82.83.16,17.53,5.29,76.56-15.38,76.56-22.32,0-14.88-63.99-13.23-75.73ZM745.84,320.74l72.5-3.56-15.89,13.22,8.74,12.04,21.12-18.45-.67-4.02,2.29,2.61,14.07-12.29v-6.35l-29.23-24.31-2.78,6.39.91-7.94-4.82-4.01-9.64,9.76,16.4,14.32-73.01,2.09c-.5,0-.83-.33-.83-.99l-.17-14.88c0-.5.33-.83.83-.83l37.54-3.8c.5,0,.83-.33.83-.83l1.16-16.53c0-.5-.33-.83-.99-.83l-41.07.23-2.7,6.89-.93-6.87-13.17.07c-.5,0-.83.33-.83.83l-1.98,101.37c0,.5.33.83.99.83h20.34c.5,0,.83-.33.83-.83l-.66-42.33c0-.5.33-.83.83-.99ZM399.4,364.56c-29.6,0-36.71-31.42-36.71-55.07s9.26-49.61,38.03-49.61c5.99,0,11.19,1.36,15.67,3.69v9.27l3.83-6.92c14.35,10.25,20.02,31.66,20.02,49.18,0,25.3-12.9,49.44-40.84,49.44ZM420.73,314.78c0-15.87-7.44-33.24-20.67-33.24-11.74,0-17.69,14.39-17.69,28.94,0,11.74,4.3,31.75,19.18,31.75s19.18-15.38,19.18-27.45ZM730.54,392.84l-42-4.63c-.99,0-1.65.33-1.98,1.32l-37.37,140.89c-.33.99-.66.99-.66,0l-17.86-144.86c0-.99-1-1.65-1.99-1.65l-14.52.44v12.05l-3.41-11.95-25.39.77c-.99,0-1.32.66-1.32,1.66l28.77,201.08c0,.99.99,1.65,1.99,1.65l56.55-.33c.99,0,1.66-.66,1.98-1.65l10.75-35.42-3.74-12.08,5.39,6.67,46.14-151.98c.33-.99-.33-1.99-1.32-1.99ZM199.55,136.63c0,50.6-25.8,98.88-81.69,98.88-27.62,0-45.45-13.68-56.61-33.08l12.92-18.17-15.85,12.65c-10.46-21.42-13.88-48.34-13.88-71.53,0-48.29,18.52-99.22,76.07-99.22s79.04,62.51,79.04,110.46ZM160.53,135.97c0-31.75-14.88-66.48-41.34-66.48-23.48,0-35.39,28.77-35.39,57.88,0,23.48,8.6,63.5,38.36,63.5s38.36-30.76,38.36-54.9ZM79.23,22.34v-8.1l3.46,6.21c13.84-7.12,25.29-7.94,25.29-7.94L103.17-.1C12.23,9.24,17.51,113.81,17.51,113.81l17.35-.42c.95-54.29,24.31-79.44,44.38-91.05ZM375.5,231.55l108.15-2.31c.99,0,1.66-.66,1.66-1.66v-40.02c0-.99-.66-1.66-1.66-1.66l-59.2,5.62c-.99,0-1.65-.66-1.65-1.65v-41.34c0-.99.66-1.98,1.65-1.98l33.4-3.31c1,0,1.66-.99,1.32-1.98l-5.62-31.75c-.33-.99-1-1.65-1.99-1.65l-28.77,2.31c-.99,0-1.65-.66-1.65-1.66v-31.42c0-.99.66-1.65,1.65-1.65l49.28-5.29c.99,0,1.65-.66,1.65-1.65l-.66-33.4c0-.99-.66-1.65-1.66-1.65l-87.97,2.31c-.99,0-1.65.66-1.65,1.65l-6.2,150.22,6.35,4.24-6.65,3.09-1.44,34.93c0,.99.66,1.65,1.66,1.65ZM848.69,220.13l108.15-2.31c.99,0,1.66-.66,1.66-1.66v-40.01c0-.99-.66-1.66-1.66-1.66l-59.2,5.62c-.99,0-1.65-.66-1.65-1.65v-29.92c0-.99.66-1.98,1.65-1.98l33.4-3.31c1,0,1.66-.99,1.32-1.98l-5.62-31.75c-.33-.99-1-1.65-1.99-1.65l-28.77,2.31c-.99,0-1.65-.66-1.65-1.66v-31.42c0-.99.66-1.65,1.65-1.65l49.28-5.29c.99,0,1.65-.66,1.65-1.65l-.66-33.4c0-.99-.66-1.65-1.66-1.65l-31.54.83-7.5,7.55.7-7.37-49.63,1.31c-.99,0-1.65.66-1.65,1.65l-7.94,181.06c0,.99.66,1.65,1.66,1.65ZM846.86,231.16l-1.15,12.15,24.6.05,4.61-3.42v3.43l85.85.16-1.35-14.82-112.55,2.45Z"/>
      <g>
        <path class="cls-1" d="M509.29,478.02c-.34,2.54-1.35,4.88-2.43,7.17-1.7,3.6-3.86,6.93-6.21,10.13-3.14,4.27-6.63,8.23-10.25,12.08-1.04,1.1-2.08,2.2-3.13,3.3-.09-.06-.14-.1-.19-.14-3.79-3.67-7.32-7.58-10.52-11.78-2.61-3.42-5.07-6.96-7.14-10.74-1.46-2.65-2.71-5.4-3.36-8.39-.14-.63-.24-1.27-.36-1.91v-2.43s.08-.11.09-.17c.21-2.28,1.19-4.21,2.71-5.88.99-1.1,2.23-1.71,3.73-1.73,2.11-.03,3.91.8,5.49,2.1,1.87,1.53,3.51,3.3,4.93,5.25,1.7,2.34,3.32,4.73,4.98,7.1.03-.05.09-.14.15-.24,1.9-2.71,3.68-5.52,5.73-8.11,2.23-2.81,4.74-5.38,8.38-6.4h1.62s.07.07.11.08c1.5.28,2.65,1.13,3.58,2.29,1.98,2.48,2.48,5.36,2.09,8.42Z"/>
        <path class="cls-1" d="M509.29,478.02c-.34,2.54-1.35,4.88-2.43,7.17-1.7,3.6-3.86,6.93-6.21,10.13-3.14,4.27-6.63,8.23-10.25,12.08-1.04,1.1-2.08,2.2-3.13,3.3-.09-.06-.14-.1-.19-.14-3.79-3.67-7.32-7.58-10.52-11.78-2.61-3.42-5.07-6.96-7.14-10.74-1.46-2.65-2.71-5.4-3.36-8.39-.14-.63-.24-1.27-.36-1.91v-2.43s.08-.11.09-.17c.21-2.28,1.19-4.21,2.71-5.88.99-1.1,2.23-1.71,3.73-1.73,2.11-.03,3.91.8,5.49,2.1,1.87,1.53,3.51,3.3,4.93,5.25,1.7,2.34,3.32,4.73,4.98,7.1.03-.05.09-.14.15-.24,1.9-2.71,3.68-5.52,5.73-8.11,2.23-2.81,4.74-5.38,8.38-6.4h1.62s.07.07.11.08c1.5.28,2.65,1.13,3.58,2.29,1.98,2.48,2.48,5.36,2.09,8.42Z"/>
        <polygon class="cls-2" points="342.4 495.64 342.35 513.32 383.58 504.83 380.12 488.03 342.4 495.64"/>
        <polygon class="cls-2" points="342.4 467.49 342.35 485.17 378.63 477.15 375.17 460.35 342.4 467.49"/>
        <polygon class="cls-2" points="283.04 579.8 282.4 594.74 395.27 590.25 393.34 572.74 283.04 579.8"/>
        <path class="cls-2" d="M509.29,478.02c-.34,2.54-1.35,4.88-2.43,7.17-1.7,3.6-3.86,6.93-6.21,10.13-3.14,4.27-6.63,8.23-10.25,12.08-1.04,1.1-2.08,2.2-3.13,3.3-.09-.06-.14-.1-.19-.14-3.79-3.67-7.32-7.58-10.52-11.78-2.61-3.42-5.07-6.96-7.14-10.74-1.46-2.65-2.71-5.4-3.36-8.39-.14-.63-.24-1.27-.36-1.91v-2.43s.08-.11.09-.17c.21-2.28,1.19-4.21,2.71-5.88.99-1.1,2.23-1.71,3.73-1.73,2.11-.03,3.91.8,5.49,2.1,1.87,1.53,3.51,3.3,4.93,5.25,1.7,2.34,3.32,4.73,4.98,7.1.03-.05.09-.14.15-.24,1.9-2.71,3.68-5.52,5.73-8.11,2.23-2.81,4.74-5.38,8.38-6.4h1.62s.07.07.11.08c1.5.28,2.65,1.13,3.58,2.29,1.98,2.48,2.48,5.36,2.09,8.42Z"/>
        <polygon class="cls-2" points="1116.2 14.18 1102.15 4.34 1083.24 32.04 1095.35 44.93 1116.2 14.18"/>
        <polygon class="cls-2" points="1131.55 35.52 1100.02 52.93 1107.27 68.74 1139.7 50.61 1131.55 35.52"/>
        <polygon class="cls-2" points="1110.02 76.93 1111.27 94.57 1144.44 99.5 1146.76 82.5 1110.02 76.93"/>
        <path class="cls-2" d="M707.22,73.13l42.33-3.64c.99,0,1.65.66,1.65,1.66l-6.61,159.74c0,.99.66,1.66,1.65,1.66l42.33,2.65c.99,0,1.65-.66,1.65-1.66l.21-101.72-7.29-3.17,7.3-1.21.11-56.62c0-.99.66-1.66,1.66-1.66l35.38,3.31c1,0,1.99-.66,1.99-1.65l4.63-40.35c0-.99-.33-1.65-1.32-1.65l-130.3,1.98c-.99,0-1.32.66-1.32,1.65l3.97,39.02c0,.99,1,1.66,1.99,1.66Z"/>
        <path class="cls-2" d="M282.73,567.1c0,.99.66,1.65,1.66,1.65l107.15-6.94c.99,0,1.66-.66,1.66-1.66l-5.63-41.34c0-.99-.66-1.66-1.65-1.32l-58.87,9.59c-.99,0-1.65-.33-1.65-1.32l4.63-262.99c0-.99-.66-1.65-1.65-1.65l-41.67-2.31c-.99,0-1.66.66-1.66,1.65l-1.05,138.46,10.7,5.38-10.77,3.86-1.2,158.95Z"/>
        <path class="cls-2" d="M507.2,469.6c1.98,2.48,2.48,5.36,2.09,8.42-.34,2.54-1.35,4.88-2.43,7.17-1.7,3.6-3.86,6.93-6.21,10.13-3.14,4.27-6.63,8.23-10.25,12.08-1.04,1.1-2.08,2.2-3.13,3.3-.09-.06-.14-.1-.19-.14-3.79-3.67-7.32-7.58-10.52-11.78-2.61-3.42-5.07-6.96-7.14-10.74-1.46-2.65-2.71-5.4-3.36-8.39-.14-.63-.24-1.27-.36-1.91v-2.43s.08-.11.09-.17c.21-2.28,1.19-4.21,2.71-5.88.99-1.1,2.23-1.71,3.73-1.73,2.11-.03,3.91.8,5.49,2.1,1.87,1.53,3.51,3.3,4.93,5.25,1.7,2.34,3.32,4.73,4.98,7.1.03-.05.09-.14.15-.24,1.9-2.71,3.68-5.52,5.73-8.11,2.23-2.81,4.74-5.38,8.38-6.4h1.62s.07.07.11.08c1.5.28,2.65,1.13,3.58,2.29Z"/>
        <path class="cls-2" d="M566.16,489.42c0-47.96-21.16-110.47-79.04-110.47s-76.07,50.93-76.07,99.22,14.23,110.13,73.42,110.13c31.68,0,53.69-15.51,66.81-38.16l-7.35-12.98,9.74,8.59c8.42-16.49,12.49-36.23,12.49-56.33ZM488.77,543.66c-29.76,0-38.36-40.03-38.36-63.51,0-29.1,11.91-57.87,35.39-57.87,26.46,0,41.34,34.72,41.34,66.47,0,24.15-9.59,54.91-38.37,54.91Z"/>
        <path class="cls-2" d="M509.29,478.02c-.34,2.54-1.35,4.88-2.43,7.17-1.7,3.6-3.86,6.93-6.21,10.13-3.14,4.27-6.63,8.23-10.25,12.08-1.04,1.1-2.08,2.2-3.13,3.3-.09-.06-.14-.1-.19-.14-3.79-3.67-7.32-7.58-10.52-11.78-2.61-3.42-5.07-6.96-7.14-10.74-1.46-2.65-2.71-5.4-3.36-8.39-.14-.63-.24-1.27-.36-1.91v-2.43s.08-.11.09-.17c.21-2.28,1.19-4.21,2.71-5.88.99-1.1,2.23-1.71,3.73-1.73,2.11-.03,3.91.8,5.49,2.1,1.87,1.53,3.51,3.3,4.93,5.25,1.7,2.34,3.32,4.73,4.98,7.1.03-.05.09-.14.15-.24,1.9-2.71,3.68-5.52,5.73-8.11,2.23-2.81,4.74-5.38,8.38-6.4h1.62s.07.07.11.08c1.5.28,2.65,1.13,3.58,2.29,1.98,2.48,2.48,5.36,2.09,8.42Z"/>
        <path class="cls-2" d="M859.85,538.69l-59.2,5.62c-1,0-1.66-.66-1.66-1.65v-41.34c0-.99.66-1.98,1.66-1.98l33.4-3.31c.99,0,1.65-.99,1.32-1.98l-5.63-31.75c-.33-.99-.99-1.65-1.98-1.65l-28.78,2.31c-.99,0-1.65-.66-1.65-1.66v-31.42c0-.99.66-1.65,1.65-1.65l49.28-5.29c.99,0,1.65-.66,1.65-1.65l-.66-33.4c0-.99-.66-1.65-1.65-1.65l-10.67.28-7.9,9.9,2.89-9.77-72.3,1.9c-.99,0-1.65.66-1.65,1.65l-7.93,192.48c0,.99.66,1.65,1.65,1.65l108.15-2.31c.99,0,1.65-.66,1.65-1.65v-40.02c0-.99-.66-1.66-1.65-1.66Z"/>
        <path class="cls-2" d="M1025.39,175.66c46.63-5.63,74.74-40.35,74.08-83.02-.67-43.32-33.08-66.8-76.4-66.8-5.62,0-41.34,2.64-41.34,8.27l-.33,205.37c0,1,.66,1.66,1.65,1.66l43-2.98c.99,0,1.65-.66,1.65-1.65l-3.97-59.2c0-.99.67-1.65,1.66-1.65ZM1022.08,131.34l-2.98-60.52c0-1,.66-1.66,1.66-1.99,10.39-1.89,17.86-.82,23.18,1.96l13.12-11.53-7.93,15.37c5.39,5.55,7.01,13.61,7.01,20.66,0,20.17-13.56,36.38-32.41,37.7-.99,0-1.65-.66-1.65-1.65Z"/>
        <path class="cls-2" d="M619.58,243.45c24.46-.76,48.72-15.76,58.86-41.9l-6.23-8.9h9.03c1.4-5.78,2.16-12.01,2.16-18.65,0-64.49-79.04-66.81-79.04-97.23,0-10.25,6.94-17.2,14.88-17.2,6.95,0,14.22,4.96,18.85,17.53.33.99.99,1.32,1.99.99l28.11-12.24c.99-.33,1.32-1.32.99-2.32-7.93-27.78-29.76-40.01-51.59-40.01-27.78,0-55.56,19.51-55.56,51.26,0,61.52,81.69,56.89,81.69,102.85,0,14.88-11.91,26.46-24.14,26.46-12.9,0-26.13-12.57-26.46-47.96,0-.99-.66-1.65-1.66-1.65l-36.05,1.65c-.99,0-1.65.66-1.65,1.66-3.31,61.18,31.42,87.31,65.81,85.66Z"/>
        <path class="cls-2" d="M260.41,135.31l52.92,98.56c.33.99,1.32,1.32,2.31,1.32l35.72-2.98c.99,0,1.65-.66,1.65-1.66l1.88-124.27-14.13,17.21,14.31-28.9.92-60.81c0-.99-.66-1.66-1.65-1.66l-41.34-.33c-.99,0-1.65.66-1.65,1.66l2.98,119.72c0,.99-.33,1.32-.66.33l-53.24-120.71c-.33-.99-1.32-1.32-2.32-1.32l-36.05.33c-.99,0-1.65.66-1.65,1.66l-2.98,201.41c0,.99.66,1.65,1.65,1.65l42.66-4.3c1,0,1.66-.66,1.66-1.66l-3.64-94.92c0-.99.33-1.32.66-.33Z"/>
        <path class="cls-2" d="M675.07,259.88c-28.78,0-38.04,25.47-38.04,49.61s7.11,55.07,36.71,55.07c27.95,0,40.85-24.15,40.85-49.45,0-23.97-10.58-55.23-39.52-55.23ZM675.89,342.23c-8.99,0-14.12-7.31-16.77-15.68l-5.17,1.96,3.41-9.65c-.45-2.98-.65-5.87-.65-8.38,0-14.55,5.95-28.93,17.69-28.93,13.23,0,20.68,17.36,20.68,33.23,0,12.07-4.8,27.45-19.19,27.45Z"/>
        <path class="cls-2" d="M600.65,282.21l2.31-20.17c0-.5-.17-.83-.66-.83l-44.79.68,1.02,4.75-7.04-4.66-14.33.22c-.5,0-.66.33-.66.83l1.99,19.51c0,.5.5.83.99.83l21.17-1.82c.5,0,.83.33.83.83l-3.31,79.87c0,.5.33.83.83.83l21.17,1.32c.5,0,.82-.33.82-.83l.17-81.36c0-.5.33-.83.83-.83l17.69,1.65c.5,0,.99-.33.99-.83Z"/>
        <path class="cls-2" d="M475.3,262.7c0-.5-.16-.83-.66-.83l-21.99-.83c-.5,0-.99.33-.99.83-3.08,25.21-6.49,76.2,14.29,94.57l4.59-3.78-1.8,5.95c4.36,2.95,9.63,4.63,15.99,4.63,48.12,0,43.49-68.13,41.67-100.71,0-.5-.33-.83-.83-.83l-20.84-.66c-.5,0-.82.33-.82.83.16,17.53,5.29,76.56-15.38,76.56-22.32,0-14.88-63.99-13.23-75.73Z"/>
        <path class="cls-2" d="M745.84,320.74l72.5-3.56-15.89,13.22,8.74,12.04,21.12-18.45-.67-4.02,2.29,2.61,14.07-12.29v-6.35l-29.23-24.31-2.78,6.39.91-7.94-4.82-4.01-9.64,9.76,16.4,14.32-73.01,2.09c-.5,0-.83-.33-.83-.99l-.17-14.88c0-.5.33-.83.83-.83l37.54-3.8c.5,0,.83-.33.83-.83l1.16-16.53c0-.5-.33-.83-.99-.83l-41.07.23-2.7,6.89-.93-6.87-13.17.07c-.5,0-.83.33-.83.83l-1.98,101.37c0,.5.33.83.99.83h20.34c.5,0,.83-.33.83-.83l-.66-42.33c0-.5.33-.83.83-.99Z"/>
        <path class="cls-2" d="M420.23,265.93l-3.84,6.92v-9.27c-4.48-2.34-9.68-3.7-15.67-3.7-28.77,0-38.03,25.47-38.03,49.61s7.11,55.07,36.71,55.07c27.94,0,40.84-24.15,40.84-49.45,0-17.52-5.67-38.93-20.01-49.18ZM401.55,342.23c-14.88,0-19.18-20-19.18-31.75,0-14.55,5.95-28.93,17.69-28.93,13.23,0,20.67,17.36,20.67,33.23,0,12.07-4.79,27.45-19.18,27.45Z"/>
        <path class="cls-2" d="M730.54,392.84l-42-4.63c-.99,0-1.65.33-1.98,1.32l-37.37,140.89c-.33.99-.66.99-.66,0l-17.86-144.86c0-.99-1-1.65-1.99-1.65l-14.52.44v12.05l-3.41-11.95-25.39.77c-.99,0-1.32.66-1.32,1.66l28.77,201.08c0,.99.99,1.65,1.99,1.65l56.55-.33c.99,0,1.66-.66,1.98-1.65l10.75-35.42-3.74-12.08,5.39,6.67,46.14-151.98c.33-.99-.33-1.99-1.32-1.99Z"/>
        <path class="cls-2" d="M120.51,26.17c-57.54,0-76.06,50.93-76.06,99.22,0,23.18,3.42,50.1,13.88,71.52l15.85-12.65-12.93,18.17c11.17,19.4,28.99,33.09,56.62,33.09,55.89,0,81.68-48.29,81.68-98.89,0-47.95-21.16-110.46-79.04-110.46ZM122.17,190.87c-29.77,0-38.37-40.02-38.37-63.5,0-29.1,11.91-57.88,35.39-57.88,26.46,0,41.34,34.73,41.34,66.48,0,24.14-9.59,54.9-38.36,54.9Z"/>
        <path class="cls-2" d="M79.23,22.34v-8.1l3.46,6.21c13.84-7.12,25.29-7.94,25.29-7.94L103.17-.1C12.23,9.24,17.51,113.81,17.51,113.81l17.35-.42c.95-54.29,24.31-79.44,44.38-91.05Z"/>
        <path class="cls-2" d="M375.5,231.55l108.15-2.31c.99,0,1.66-.66,1.66-1.66v-40.02c0-.99-.66-1.66-1.66-1.66l-59.2,5.62c-.99,0-1.65-.66-1.65-1.65v-41.34c0-.99.66-1.98,1.65-1.98l33.4-3.31c1,0,1.66-.99,1.32-1.98l-5.62-31.75c-.33-.99-1-1.65-1.99-1.65l-28.77,2.31c-.99,0-1.65-.66-1.65-1.66v-31.42c0-.99.66-1.65,1.65-1.65l49.28-5.29c.99,0,1.65-.66,1.65-1.65l-.66-33.4c0-.99-.66-1.65-1.66-1.65l-87.97,2.31c-.99,0-1.65.66-1.65,1.65l-6.2,150.22,6.35,4.24-6.65,3.09-1.44,34.93c0,.99.66,1.65,1.66,1.65Z"/>
        <path class="cls-2" d="M848.69,220.13l108.15-2.31c.99,0,1.66-.66,1.66-1.66v-40.01c0-.99-.66-1.66-1.66-1.66l-59.2,5.62c-.99,0-1.65-.66-1.65-1.65v-29.92c0-.99.66-1.98,1.65-1.98l33.4-3.31c1,0,1.66-.99,1.32-1.98l-5.62-31.75c-.33-.99-1-1.65-1.99-1.65l-28.77,2.31c-.99,0-1.65-.66-1.65-1.66v-31.42c0-.99.66-1.65,1.65-1.65l49.28-5.29c.99,0,1.65-.66,1.65-1.65l-.66-33.4c0-.99-.66-1.65-1.66-1.65l-31.54.83-7.5,7.55.7-7.37-49.63,1.31c-.99,0-1.65.66-1.65,1.65l-7.94,181.06c0,.99.66,1.65,1.66,1.65Z"/>
        <polygon class="cls-2" points="846.86 231.16 845.71 243.31 870.31 243.35 874.91 239.94 874.91 243.36 960.77 243.53 959.41 228.71 846.86 231.16"/>
      </g>
      <path class="cls-1" d="M509.29,478.02c-.34,2.54-1.35,4.88-2.43,7.17-1.7,3.6-3.86,6.93-6.21,10.13-3.14,4.27-6.63,8.23-10.25,12.08-1.04,1.1-2.08,2.2-3.13,3.3-.09-.06-.14-.1-.19-.14-3.79-3.67-7.32-7.58-10.52-11.78-2.61-3.42-5.07-6.96-7.14-10.74-1.46-2.65-2.71-5.4-3.36-8.39-.14-.63-.24-1.27-.36-1.91v-2.43s.08-.11.09-.17c.21-2.28,1.19-4.21,2.71-5.88.99-1.1,2.23-1.71,3.73-1.73,2.11-.03,3.91.8,5.49,2.1,1.87,1.53,3.51,3.3,4.93,5.25,1.7,2.34,3.32,4.73,4.98,7.1.03-.05.09-.14.15-.24,1.9-2.71,3.68-5.52,5.73-8.11,2.23-2.81,4.74-5.38,8.38-6.4h1.62s.07.07.11.08c1.5.28,2.65,1.13,3.58,2.29,1.98,2.48,2.48,5.36,2.09,8.42ZM507.2,469.6c-.93-1.16-2.08-2.01-3.58-2.29-.04-.01-.08-.05-.11-.08h-1.62c-3.64,1.02-6.15,3.59-8.38,6.4-2.05,2.59-3.83,5.4-5.73,8.11-.06.1-.12.19-.15.24-1.66-2.37-3.28-4.76-4.98-7.1-1.42-1.95-3.06-3.72-4.93-5.25-1.58-1.3-3.38-2.13-5.49-2.1-1.5.02-2.74.63-3.73,1.73-1.52,1.67-2.5,3.6-2.71,5.88-.01.06-.06.12-.09.17v2.43c.12.64.22,1.28.36,1.91.65,2.99,1.9,5.74,3.36,8.39,2.07,3.78,4.53,7.32,7.14,10.74,3.2,4.2,6.73,8.11,10.52,11.78.05.04.1.08.19.14,1.05-1.1,2.09-2.2,3.13-3.3,3.62-3.85,7.11-7.81,10.25-12.08,2.35-3.2,4.51-6.53,6.21-10.13,1.08-2.29,2.09-4.63,2.43-7.17.39-3.06-.11-5.94-2.09-8.42ZM342.4,495.64l-.06,17.68,41.23-8.49-3.46-16.8-37.72,7.61ZM342.4,467.49l-.06,17.68,36.28-8.02-3.46-16.8-32.77,7.14ZM283.04,579.8l-.64,14.94,112.87-4.49-1.92-17.51-110.3,7.05ZM507.2,469.6c-.93-1.16-2.08-2.01-3.58-2.29-.04-.01-.08-.05-.11-.08h-1.62c-3.64,1.02-6.15,3.59-8.38,6.4-2.05,2.59-3.83,5.4-5.73,8.11-.06.1-.12.19-.15.24-1.66-2.37-3.28-4.76-4.98-7.1-1.42-1.95-3.06-3.72-4.93-5.25-1.58-1.3-3.38-2.13-5.49-2.1-1.5.02-2.74.63-3.73,1.73-1.52,1.67-2.5,3.6-2.71,5.88-.01.06-.06.12-.09.17v2.43c.12.64.22,1.28.36,1.91.65,2.99,1.9,5.74,3.36,8.39,2.07,3.78,4.53,7.32,7.14,10.74,3.2,4.2,6.73,8.11,10.52,11.78.05.04.1.08.19.14,1.05-1.1,2.09-2.2,3.13-3.3,3.62-3.85,7.11-7.81,10.25-12.08,2.35-3.2,4.51-6.53,6.21-10.13,1.08-2.29,2.09-4.63,2.43-7.17.39-3.06-.11-5.94-2.09-8.42ZM1116.2,14.18l-14.05-9.83-18.91,27.7,12.1,12.89,20.86-30.75ZM1131.55,35.52l-31.53,17.41,7.25,15.81,32.43-18.14-8.15-15.09ZM1110.02,76.93l1.24,17.64,33.17,4.93,2.32-16.99-36.74-5.57ZM707.22,73.13l42.33-3.64c.99,0,1.65.66,1.65,1.66l-6.61,159.74c0,.99.66,1.66,1.65,1.66l42.33,2.65c.99,0,1.65-.66,1.65-1.66l.21-101.72-7.29-3.17,7.3-1.21.11-56.62c0-.99.66-1.66,1.66-1.66l35.38,3.31c1,0,1.99-.66,1.99-1.65l4.63-40.35c0-.99-.33-1.65-1.32-1.65l-130.3,1.98c-.99,0-1.32.66-1.32,1.65l3.97,39.02c0,.99,1,1.66,1.99,1.66ZM282.73,567.1c0,.99.66,1.65,1.66,1.65l107.15-6.94c.99,0,1.66-.66,1.66-1.66l-5.63-41.34c0-.99-.66-1.66-1.65-1.32l-58.87,9.59c-.99,0-1.65-.33-1.65-1.32l4.63-262.99c0-.99-.66-1.65-1.65-1.65l-41.67-2.31c-.99,0-1.66.66-1.66,1.65l-1.05,138.46,10.7,5.38-10.77,3.86-1.2,158.95ZM507.2,469.6c-.93-1.16-2.08-2.01-3.58-2.29-.04-.01-.08-.05-.11-.08h-1.62c-3.64,1.02-6.15,3.59-8.38,6.4-2.05,2.59-3.83,5.4-5.73,8.11-.06.1-.12.19-.15.24-1.66-2.37-3.28-4.76-4.98-7.1-1.42-1.95-3.06-3.72-4.93-5.25-1.58-1.3-3.38-2.13-5.49-2.1-1.5.02-2.74.63-3.73,1.73-1.52,1.67-2.5,3.6-2.71,5.88-.01.06-.06.12-.09.17v2.43c.12.64.22,1.28.36,1.91.65,2.99,1.9,5.74,3.36,8.39,2.07,3.78,4.53,7.32,7.14,10.74,3.2,4.2,6.73,8.11,10.52,11.78.05.04.1.08.19.14,1.05-1.1,2.09-2.2,3.13-3.3,3.62-3.85,7.11-7.81,10.25-12.08,2.35-3.2,4.51-6.53,6.21-10.13,1.08-2.29,2.09-4.63,2.43-7.17.39-3.06-.11-5.94-2.09-8.42ZM503.62,467.31s-.08-.05-.11-.08h-1.62c-3.64,1.02-6.15,3.59-8.38,6.4-2.05,2.59-3.83,5.4-5.73,8.11-.06.1-.12.19-.15.24-1.66-2.37-3.28-4.76-4.98-7.1-1.42-1.95-3.06-3.72-4.93-5.25-1.58-1.3-3.38-2.13-5.49-2.1-1.5.02-2.74.63-3.73,1.73-1.52,1.67-2.5,3.6-2.71,5.88-.01.06-.06.12-.09.17v2.43c.12.64.22,1.28.36,1.91.65,2.99,1.9,5.74,3.36,8.39,2.07,3.78,4.53,7.32,7.14,10.74,3.2,4.2,6.73,8.11,10.52,11.78.05.04.1.08.19.14,1.05-1.1,2.09-2.2,3.13-3.3,3.62-3.85,7.11-7.81,10.25-12.08,2.35-3.2,4.51-6.53,6.21-10.13,1.08-2.29,2.09-4.63,2.43-7.17.39-3.06-.11-5.94-2.09-8.42-.93-1.16-2.08-2.01-3.58-2.29ZM553.67,545.75l-9.74-8.59,7.35,12.98c-13.12,22.65-35.13,38.16-66.81,38.16-59.19,0-73.42-62.84-73.42-110.13s18.53-99.22,76.07-99.22,79.04,62.51,79.04,110.47c0,20.1-4.07,39.84-12.49,56.33ZM527.14,488.75c0-31.75-14.88-66.47-41.34-66.47-23.48,0-35.39,28.77-35.39,57.87,0,23.48,8.6,63.51,38.36,63.51s38.37-30.76,38.37-54.91ZM507.2,469.6c-.93-1.16-2.08-2.01-3.58-2.29-.04-.01-.08-.05-.11-.08h-1.62c-3.64,1.02-6.15,3.59-8.38,6.4-2.05,2.59-3.83,5.4-5.73,8.11-.06.1-.12.19-.15.24-1.66-2.37-3.28-4.76-4.98-7.1-1.42-1.95-3.06-3.72-4.93-5.25-1.58-1.3-3.38-2.13-5.49-2.1-1.5.02-2.74.63-3.73,1.73-1.52,1.67-2.5,3.6-2.71,5.88-.01.06-.06.12-.09.17v2.43c.12.64.22,1.28.36,1.91.65,2.99,1.9,5.74,3.36,8.39,2.07,3.78,4.53,7.32,7.14,10.74,3.2,4.2,6.73,8.11,10.52,11.78.05.04.1.08.19.14,1.05-1.1,2.09-2.2,3.13-3.3,3.62-3.85,7.11-7.81,10.25-12.08,2.35-3.2,4.51-6.53,6.21-10.13,1.08-2.29,2.09-4.63,2.43-7.17.39-3.06-.11-5.94-2.09-8.42ZM507.2,469.6c-.93-1.16-2.08-2.01-3.58-2.29-.04-.01-.08-.05-.11-.08h-1.62c-3.64,1.02-6.15,3.59-8.38,6.4-2.05,2.59-3.83,5.4-5.73,8.11-.06.1-.12.19-.15.24-1.66-2.37-3.28-4.76-4.98-7.1-1.42-1.95-3.06-3.72-4.93-5.25-1.58-1.3-3.38-2.13-5.49-2.1-1.5.02-2.74.63-3.73,1.73-1.52,1.67-2.5,3.6-2.71,5.88-.01.06-.06.12-.09.17v2.43c.12.64.22,1.28.36,1.91.65,2.99,1.9,5.74,3.36,8.39,2.07,3.78,4.53,7.32,7.14,10.74,3.2,4.2,6.73,8.11,10.52,11.78.05.04.1.08.19.14,1.05-1.1,2.09-2.2,3.13-3.3,3.62-3.85,7.11-7.81,10.25-12.08,2.35-3.2,4.51-6.53,6.21-10.13,1.08-2.29,2.09-4.63,2.43-7.17.39-3.06-.11-5.94-2.09-8.42ZM859.85,538.69l-59.2,5.62c-1,0-1.66-.66-1.66-1.65v-41.34c0-.99.66-1.98,1.66-1.98l33.4-3.31c.99,0,1.65-.99,1.32-1.98l-5.63-31.75c-.33-.99-.99-1.65-1.98-1.65l-28.78,2.31c-.99,0-1.65-.66-1.65-1.66v-31.42c0-.99.66-1.65,1.65-1.65l49.28-5.29c.99,0,1.65-.66,1.65-1.65l-.66-33.4c0-.99-.66-1.65-1.65-1.65l-10.67.28-7.9,9.9,2.89-9.77-72.3,1.9c-.99,0-1.65.66-1.65,1.65l-7.93,192.48c0,.99.66,1.65,1.65,1.65l108.15-2.31c.99,0,1.65-.66,1.65-1.65v-40.02c0-.99-.66-1.66-1.65-1.66ZM1023.73,177.31l3.97,59.2c0,.99-.66,1.65-1.65,1.65l-43,2.98c-.99,0-1.65-.66-1.65-1.66l.33-205.37c0-5.63,35.72-8.27,41.34-8.27,43.32,0,75.73,23.48,76.4,66.8.66,42.67-27.45,77.39-74.08,83.02-.99,0-1.66.66-1.66,1.65ZM1023.73,132.99c18.85-1.32,32.41-17.53,32.41-37.7,0-7.05-1.62-15.11-7.01-20.66l7.93-15.37-13.12,11.53c-5.32-2.78-12.79-3.85-23.18-1.96-1,.33-1.66.99-1.66,1.99l2.98,60.52c0,.99.66,1.65,1.65,1.65ZM619.58,243.45c24.46-.76,48.72-15.76,58.86-41.9l-6.23-8.9h9.03c1.4-5.78,2.16-12.01,2.16-18.65,0-64.49-79.04-66.81-79.04-97.23,0-10.25,6.94-17.2,14.88-17.2,6.95,0,14.22,4.96,18.85,17.53.33.99.99,1.32,1.99.99l28.11-12.24c.99-.33,1.32-1.32.99-2.32-7.93-27.78-29.76-40.01-51.59-40.01-27.78,0-55.56,19.51-55.56,51.26,0,61.52,81.69,56.89,81.69,102.85,0,14.88-11.91,26.46-24.14,26.46-12.9,0-26.13-12.57-26.46-47.96,0-.99-.66-1.65-1.66-1.65l-36.05,1.65c-.99,0-1.65.66-1.65,1.66-3.31,61.18,31.42,87.31,65.81,85.66ZM260.41,135.31l52.92,98.56c.33.99,1.32,1.32,2.31,1.32l35.72-2.98c.99,0,1.65-.66,1.65-1.66l1.88-124.27-14.13,17.21,14.31-28.9.92-60.81c0-.99-.66-1.66-1.65-1.66l-41.34-.33c-.99,0-1.65.66-1.65,1.66l2.98,119.72c0,.99-.33,1.32-.66.33l-53.24-120.71c-.33-.99-1.32-1.32-2.32-1.32l-36.05.33c-.99,0-1.65.66-1.65,1.66l-2.98,201.41c0,.99.66,1.65,1.65,1.65l42.66-4.3c1,0,1.66-.66,1.66-1.66l-3.64-94.92c0-.99.33-1.32.66-.33ZM714.59,315.11c0,25.3-12.9,49.45-40.85,49.45-29.6,0-36.71-31.42-36.71-55.07s9.26-49.61,38.04-49.61,39.52,31.26,39.52,55.23ZM695.08,314.78c0-15.87-7.45-33.23-20.68-33.23-11.74,0-17.69,14.38-17.69,28.93,0,2.51.2,5.4.65,8.38l-3.41,9.65,5.17-1.96c2.65,8.37,7.78,15.68,16.77,15.68,14.39,0,19.19-15.38,19.19-27.45ZM600.65,282.21l2.31-20.17c0-.5-.17-.83-.66-.83l-44.79.68,1.02,4.75-7.04-4.66-14.33.22c-.5,0-.66.33-.66.83l1.99,19.51c0,.5.5.83.99.83l21.17-1.82c.5,0,.83.33.83.83l-3.31,79.87c0,.5.33.83.83.83l21.17,1.32c.5,0,.82-.33.82-.83l.17-81.36c0-.5.33-.83.83-.83l17.69,1.65c.5,0,.99-.33.99-.83ZM475.3,262.7c0-.5-.16-.83-.66-.83l-21.99-.83c-.5,0-.99.33-.99.83-3.08,25.21-6.49,76.2,14.29,94.57l4.59-3.78-1.8,5.95c4.36,2.95,9.63,4.63,15.99,4.63,48.12,0,43.49-68.13,41.67-100.71,0-.5-.33-.83-.83-.83l-20.84-.66c-.5,0-.82.33-.82.83.16,17.53,5.29,76.56-15.38,76.56-22.32,0-14.88-63.99-13.23-75.73ZM745.84,320.74l72.5-3.56-15.89,13.22,8.74,12.04,21.12-18.45-.67-4.02,2.29,2.61,14.07-12.29v-6.35l-29.23-24.31-2.78,6.39.91-7.94-4.82-4.01-9.64,9.76,16.4,14.32-73.01,2.09c-.5,0-.83-.33-.83-.99l-.17-14.88c0-.5.33-.83.83-.83l37.54-3.8c.5,0,.83-.33.83-.83l1.16-16.53c0-.5-.33-.83-.99-.83l-41.07.23-2.7,6.89-.93-6.87-13.17.07c-.5,0-.83.33-.83.83l-1.98,101.37c0,.5.33.83.99.83h20.34c.5,0,.83-.33.83-.83l-.66-42.33c0-.5.33-.83.83-.99ZM440.24,315.11c0,25.3-12.9,49.45-40.84,49.45-29.6,0-36.71-31.42-36.71-55.07s9.26-49.61,38.03-49.61c5.99,0,11.19,1.36,15.67,3.7v9.27l3.84-6.92c14.34,10.25,20.01,31.66,20.01,49.18ZM420.73,314.78c0-15.87-7.44-33.23-20.67-33.23-11.74,0-17.69,14.38-17.69,28.93,0,11.75,4.3,31.75,19.18,31.75s19.18-15.38,19.18-27.45ZM730.54,392.84l-42-4.63c-.99,0-1.65.33-1.98,1.32l-37.37,140.89c-.33.99-.66.99-.66,0l-17.86-144.86c0-.99-1-1.65-1.99-1.65l-14.52.44v12.05l-3.41-11.95-25.39.77c-.99,0-1.32.66-1.32,1.66l28.77,201.08c0,.99.99,1.65,1.99,1.65l56.55-.33c.99,0,1.66-.66,1.98-1.65l10.75-35.42-3.74-12.08,5.39,6.67,46.14-151.98c.33-.99-.33-1.99-1.32-1.99ZM199.55,136.63c0,50.6-25.79,98.89-81.68,98.89-27.63,0-45.45-13.69-56.62-33.09l12.93-18.17-15.85,12.65c-10.46-21.42-13.88-48.34-13.88-71.52,0-48.29,18.52-99.22,76.06-99.22s79.04,62.51,79.04,110.46ZM160.53,135.97c0-31.75-14.88-66.48-41.34-66.48-23.48,0-35.39,28.78-35.39,57.88,0,23.48,8.6,63.5,38.37,63.5s38.36-30.76,38.36-54.9ZM79.23,22.34v-8.1l3.46,6.21c13.84-7.12,25.29-7.94,25.29-7.94L103.17-.1C12.23,9.24,17.51,113.81,17.51,113.81l17.35-.42c.95-54.29,24.31-79.44,44.38-91.05ZM375.5,231.55l108.15-2.31c.99,0,1.66-.66,1.66-1.66v-40.02c0-.99-.66-1.66-1.66-1.66l-59.2,5.62c-.99,0-1.65-.66-1.65-1.65v-41.34c0-.99.66-1.98,1.65-1.98l33.4-3.31c1,0,1.66-.99,1.32-1.98l-5.62-31.75c-.33-.99-1-1.65-1.99-1.65l-28.77,2.31c-.99,0-1.65-.66-1.65-1.66v-31.42c0-.99.66-1.65,1.65-1.65l49.28-5.29c.99,0,1.65-.66,1.65-1.65l-.66-33.4c0-.99-.66-1.65-1.66-1.65l-87.97,2.31c-.99,0-1.65.66-1.65,1.65l-6.2,150.22,6.35,4.24-6.65,3.09-1.44,34.93c0,.99.66,1.65,1.66,1.65ZM848.69,220.13l108.15-2.31c.99,0,1.66-.66,1.66-1.66v-40.01c0-.99-.66-1.66-1.66-1.66l-59.2,5.62c-.99,0-1.65-.66-1.65-1.65v-29.92c0-.99.66-1.98,1.65-1.98l33.4-3.31c1,0,1.66-.99,1.32-1.98l-5.62-31.75c-.33-.99-1-1.65-1.99-1.65l-28.77,2.31c-.99,0-1.65-.66-1.65-1.66v-31.42c0-.99.66-1.65,1.65-1.65l49.28-5.29c.99,0,1.65-.66,1.65-1.65l-.66-33.4c0-.99-.66-1.65-1.66-1.65l-31.54.83-7.5,7.55.7-7.37-49.63,1.31c-.99,0-1.65.66-1.65,1.65l-7.94,181.06c0,.99.66,1.65,1.66,1.65ZM846.86,231.16l-1.15,12.15,24.6.05,4.61-3.42v3.43l85.85.16-1.35-14.82-112.55,2.45Z"/>
      <g class="cls-4">
        <use class="cls-6" transform="translate(147.72 376.81) rotate(21.63) scale(.55)" xlink:href="#image"/>
        <use class="cls-6" transform="translate(1257.45 1279.61) rotate(162.89) scale(.55)" xlink:href="#image"/>
      </g>
    </g>
  </g>
</svg>